<?xml version="1.0" encoding="UTF-8"?>
<!DOCTYPE svg PUBLIC "-//W3C//DTD SVG 1.1//EN" "http://www.w3.org/Graphics/SVG/1.1/DTD/svg11.dtd">
<!-- Creator: CorelDRAW 2017 -->
<svg xmlns="http://www.w3.org/2000/svg" xml:space="preserve" width="351.826mm" height="364.395mm" version="1.1" style="shape-rendering:geometricPrecision; text-rendering:geometricPrecision; image-rendering:optimizeQuality; fill-rule:evenodd; clip-rule:evenodd"
viewBox="0 0 35182.58 36439.51"
 xmlns:xlink="http://www.w3.org/1999/xlink">
 <defs>
  <style type="text/css">
   <![CDATA[
    .fil1 {fill:black}
    .fil0 {fill:#2B2A29;fill-rule:nonzero}
   ]]>
  </style>
 </defs>
 <g id="Layer_x0020_1">
  <metadata id="CorelCorpID_0Corel-Layer"/>
  <path class="fil0" d="M1820.54 29706.11c0,543.41 -303.42,816.26 -911.03,817.79 -606.09,0 -909.51,-272.85 -909.51,-817.79l0 -2375.41c0,-543.41 303.42,-814.73 909.51,-814.73 607.61,0 911.03,271.32 911.03,814.73l0 522.01 -633.6 0 0 -522.01c0,-175.02 -91.71,-262.15 -275.14,-262.15l-4.59 0c-181.9,0 -273.61,87.13 -273.61,262.15l0 2375.41c0,175.03 91.71,262.15 275.91,262.15 184.95,0 277.43,-87.12 277.43,-262.15l0 -521.24 633.6 0 0 521.24z"/>
  <polygon id="1" class="fil0" points="2335.67,26569.47 2969.27,26569.47 3569.24,28821.83 3569.24,26569.47 4156.21,26569.47 4156.21,30452.06 3522.62,30452.06 2944.81,28270.78 2944.81,30452.06 2335.67,30452.06 "/>
  <path id="2" class="fil0" d="M6514.05 29706.11c0,543.41 -303.42,816.26 -911.03,817.79 -606.09,0 -909.51,-272.85 -909.51,-817.79l0 -2375.41c0,-543.41 303.42,-814.73 909.51,-814.73 607.61,0 911.03,271.32 911.03,814.73l0 522.01 -633.6 0 0 -522.01c0,-175.02 -91.71,-262.15 -275.14,-262.15l-4.59 0c-181.9,0 -273.61,87.13 -273.61,262.15l0 2375.41c0,175.03 91.71,262.15 275.91,262.15 184.95,0 277.43,-87.12 277.43,-262.15l0 -521.24 633.6 0 0 521.24z"/>
  <polygon id="3" class="fil0" points="7007.02,29724.46 7792.71,29724.46 7792.71,30367.22 7551.19,31184.25 7140.77,31184.25 7270.7,30452.06 7007.02,30452.06 "/>
  <polygon id="4" class="fil0" points="9489.43,30452.06 9489.43,26569.47 10123.03,26569.47 10123.03,29898.71 11132.66,29898.71 11132.66,30452.06 "/>
  <path id="5" class="fil0" d="M13279.55 29074.81l206.36 1377.25 -640.48 0 -123.05 -823.9 -647.35 0 -125.35 823.9 -638.18 0 206.36 -1372.66 447.87 -2509.93 868.24 0 445.58 2505.34zm-640.48 0l-241.51 -1616.47 -241.52 1616.47 483.03 0z"/>
  <path id="6" class="fil0" d="M13821.43 27330.7c0,-543.41 303.42,-814.73 909.51,-814.73 607.61,0 911.03,271.32 911.03,814.73l0 522.01 -633.6 0 0 -522.01c0,-175.02 -91.71,-262.15 -275.14,-262.15l-4.59 0c-181.9,0 -273.61,87.13 -273.61,262.15l0 351.57c0,173.5 197.95,385.21 593.85,635.89 395.14,249.16 593.09,548.76 593.09,898.04l0 489.91c0,544.94 -302.66,817.79 -908.74,817.79 -607.61,-1.53 -911.8,-274.38 -911.8,-817.79l0 -521.24 633.6 0 0 521.24c0,175.03 92.48,262.15 278.2,262.15 183.43,0 275.14,-87.12 275.14,-262.15l0 -443.29c0,-188.01 -197.95,-407.36 -593.09,-658.05 -395.9,-249.16 -593.85,-552.58 -593.85,-908.74l0 -365.33z"/>
  <polygon id="7" class="fil0" points="16179.26,26569.47 17822.49,26569.47 17822.49,27120.52 16812.86,27120.52 16812.86,28233.33 17681.86,28233.33 17681.86,28788.2 16812.86,28788.2 16812.86,29898.71 17822.49,29898.71 17822.49,30452.06 16179.26,30452.06 "/>
  <path id="8" class="fil0" d="M18293.29 26569.47l922.5 0c562.52,0 843.78,272.08 843.78,817.02l0 582.39c0,341.64 -165.85,567.11 -499.08,676.4l712.32 1806.78 -693.98 0 -571.69 -1708.19 -80.25 10.7 0 1697.49 -633.6 0 0 -3882.59zm633.6 551.05l0 1112.81 145.22 0c88.65,0 149.03,-5.35 181.9,-16.05 114.64,-40.51 171.96,-123.05 171.96,-248.4l0 -582.39c0,-177.31 -91.71,-265.97 -275.14,-265.97l-223.94 0z"/>
  <polygon id="9" class="fil0" points="20469.99,29724.46 21255.68,29724.46 21255.68,30367.22 21014.16,31184.25 20603.74,31184.25 20733.67,30452.06 20469.99,30452.06 "/>
  <polygon id="10" class="fil0" points="22952.4,26569.47 24595.63,26569.47 24595.63,27120.52 23586,27120.52 23586,28233.33 24455,28233.33 24455,28788.2 23586,28788.2 23586,30452.06 22952.4,30452.06 "/>
  <path id="11" class="fil0" d="M26787.61 29074.81l206.36 1377.25 -640.48 0 -123.05 -823.9 -647.35 0 -125.35 823.9 -638.18 0 206.36 -1372.66 447.87 -2509.93 868.24 0 445.58 2505.34zm-640.48 0l-241.51 -1616.47 -241.52 1616.47 483.03 0z"/>
  <polygon id="12" class="fil0" points="27386.05,26569.47 28019.65,26569.47 28019.65,30452.06 27386.05,30452.06 "/>
  <path id="13" class="fil0" d="M28612.73 26569.47l922.5 0c562.52,0 843.78,272.08 843.78,817.02l0 582.39c0,401.25 -201.77,660.35 -606.85,777.28 -96.3,28.28 -237.69,42.04 -422.65,42.04l-103.18 0 0 1663.86 -633.6 0 0 -3882.59zm633.6 551.05l0 1112.81 145.22 0c88.65,0 149.03,-5.35 181.9,-16.05 114.64,-40.51 171.96,-123.05 171.96,-248.4l0 -582.39c0,-177.31 -91.71,-265.97 -275.14,-265.97l-223.94 0z"/>
  <path id="14" class="fil0" d="M32616.09 29074.81l206.36 1377.25 -640.48 0 -123.05 -823.9 -647.35 0 -125.35 823.9 -638.18 0 206.36 -1372.66 447.87 -2509.93 868.24 0 445.58 2505.34zm-640.48 0l-241.51 -1616.47 -241.52 1616.47 483.03 0z"/>
  <path id="15" class="fil0" d="M33203.06 26569.47l922.5 0c562.52,0 843.78,272.08 843.78,817.02l0 582.39c0,341.64 -165.85,567.11 -499.08,676.4l712.32 1806.78 -693.98 0 -571.69 -1708.19 -80.25 10.7 0 1697.49 -633.6 0 0 -3882.59zm633.6 551.05l0 1112.81 145.22 0c88.65,0 149.03,-5.35 181.9,-16.05 114.64,-40.51 171.96,-123.05 171.96,-248.4l0 -582.39c0,-177.31 -91.71,-265.97 -275.14,-265.97l-223.94 0z"/>
  <path id="16" class="fil0" d="M8759.53 31974.53l976 0c563.28,1.53 844.54,309.54 844.54,924.79l0 2545.85c0,613.73 -295.01,920.97 -885.04,922.5l-935.5 0 0 -4393.14zm633.6 624.43l0 3144.29 277.44 0c183.43,0 275.91,-99.36 275.91,-298.08l0 -2545.85c0,-200.24 -92.48,-300.36 -275.91,-300.36l-277.44 0z"/>
  <polygon id="17" class="fil0" points="11117.36,31974.53 12760.59,31974.53 12760.59,32598.96 11750.96,32598.96 11750.96,33857.74 12619.96,33857.74 12619.96,34484.46 11750.96,34484.46 11750.96,35743.25 12760.59,35743.25 12760.59,36367.67 11117.36,36367.67 "/>
  <path id="18" class="fil0" d="M13231.39 31974.53l976 0c563.28,1.53 844.54,309.54 844.54,924.79l0 660.35c0,288.14 -116.17,492.2 -346.98,611.43 230.81,119.23 346.98,323.3 346.98,611.43l0 662.64c0,613.73 -295.01,920.97 -885.04,922.5l-935.5 0 0 -4393.14zm633.6 624.43l0 1258.78 199.48 0c87.89,0 148.27,-6.11 181.14,-18.34 114.64,-45.86 172.73,-139.1 172.73,-279.73l0 -660.35c0,-200.24 -92.48,-300.36 -275.91,-300.36l-277.44 0zm0 1885.5l0 1258.79 277.44 0c183.43,0 275.91,-99.36 275.91,-298.08l0 -662.64c0,-140.63 -58.09,-233.11 -172.73,-278.2 -32.87,-12.99 -93.25,-19.87 -181.14,-19.87l-199.48 0z"/>
  <path id="19" class="fil0" d="M15567.06 31974.53l922.5 0c562.52,1.53 843.78,309.54 843.78,924.79l0 660.35c0,386.73 -165.85,641.24 -499.08,763.52l712.32 2044.48 -693.98 0 -571.69 -1932.13 -80.25 10.7 0 1921.43 -633.6 0 0 -4393.14zm633.6 624.43l0 1258.78 145.22 0c88.65,0 149.03,-6.11 181.9,-18.34 114.64,-45.86 171.96,-139.1 171.96,-279.73l0 -660.35c0,-200.24 -91.71,-300.36 -275.14,-300.36l-223.94 0z"/>
  <polygon id="20" class="fil0" points="17905.02,31974.53 19548.25,31974.53 19548.25,32598.96 18538.62,32598.96 18538.62,33857.74 19407.62,33857.74 19407.62,34484.46 18538.62,34484.46 18538.62,35743.25 19548.25,35743.25 19548.25,36367.67 17905.02,36367.67 "/>
  <path id="21" class="fil0" d="M21794.5 35514.72c0,614.49 -303.42,923.26 -911.03,924.79 -606.09,0 -909.51,-308.77 -909.51,-924.79l0 -2687.24c0,-615.25 303.42,-922.5 909.51,-922.5 607.61,0 911.03,307.25 911.03,922.5l0 591.56 -633.6 0 0 -591.56c0,-197.19 -91.71,-296.55 -275.14,-298.07l-4.59 0c-181.9,0 -273.61,99.35 -273.61,298.07l0 2687.24c0,198.72 91.71,297.31 275.91,297.31 184.95,0 277.43,-98.59 277.43,-297.31l0 -591.56 633.6 0 0 591.56z"/>
  <polygon id="22" class="fil0" points="22309.63,31974.53 23952.86,31974.53 23952.86,32598.96 22943.23,32598.96 22943.23,33857.74 23812.23,33857.74 23812.23,34484.46 22943.23,34484.46 22943.23,35743.25 23952.86,35743.25 23952.86,36367.67 22309.63,36367.67 "/>
  <polygon id="23" class="fil0" points="24423.66,31974.53 25057.26,31974.53 25657.23,34522.67 25657.23,31974.53 26244.2,31974.53 26244.2,36367.67 25610.61,36367.67 25032.8,33899.78 25032.8,36367.67 24423.66,36367.67 "/>
 </g>
 <g id="Layer_x0020_1_0">
  <metadata id="CorelCorpID_1Corel-Layer"/>
  <path class="fil1" d="M8251.15 6828.77l1870.21 0 0 710.67 -1149.09 0 0 1432.67 989.04 0 0 713.29 -989.04 0 0 2143.34 -721.12 0 0 -4999.99 0 0.02zm4227.55 3226.33l234.87 1773.66 -728.95 0 -140.05 -1060.37 -736.78 0 -142.66 1060.37 -726.34 0 234.87 -1765.83 509.73 -3234.16 988.17 0 507.13 3226.33 0.01 0zm-728.95 0l-274.88 -2079.86 -274.87 2079.86 549.76 0 -0.01 0zm2967.12 198.33l837.67 -3424.66 721.98 0 0 4999.99 -690.67 0 0 -2806.19 -616.74 2806.19 -489.74 0 -634.13 -2806.19 0 2806.19 -698.5 0 0 -4999.99 721.12 0 848.98 3424.66 0.03 0zm4267.57 604.56c0,699.36 -345.34,1050.8 -1036.89,1052.54 -689.8,0 -1034.27,-351.43 -1034.27,-1052.54l0 -4029.22 721.12 0 0 4029.22c0,226.16 104.39,338.38 313.15,338.38 210.51,0 315.77,-112.22 315.77,-338.38l0 -4029.22 721.12 0 0 4029.22zm-506.55 -4223.2l-400.13 0 361.86 -644.57 565.43 0 -527.14 644.57 -0.02 0zm2647.29 5193.97l-988.17 0 -509.73 -3231.54 -234.87 -1768.44 728.95 0 507.13 3853.51 509.75 -3853.51 728.95 0 -234.87 1773.65 -507.13 3226.34 -0.01 -0.01zm1175.19 -4999.99l1870.21 0 0 710.67 -1149.09 0 0 1432.67 989.04 0 0 713.29 -989.04 0 0 1432.67 1149.09 0 0 710.67 -1870.21 0 0 -4999.99 0 0.02zm3713.47 2499.99l952.51 2499.99 -771.57 0 -767.22 -2222.51 0 2222.51 -721.12 0 0 -4999.99 721.12 0 0 2225.12 767.22 -2225.12 771.57 0 -952.51 2499.99 0 0.01z"/>
  <path class="fil1" d="M17786.75 24896.71c-196.39,-373.53 -82.08,-1114.93 103.87,-1498.72 57.63,-118.93 65.33,-86.81 136.41,37.75 196.12,343.68 228.95,1286.29 -14.82,1583.36 -68.57,83.57 -187.74,-78.97 -225.45,-122.4l-0.01 0.01zm4209.35 -3636.88c-518.47,106.19 -1000.25,102.08 -1506.58,-56.14 -138.68,-43.33 741.22,-133.54 894.77,-129.44 278.05,7.44 453.79,25.95 694.09,142.36l-5.85 20.43 -76.43 22.79zm-2719.33 6.2c-617.1,295.68 -856.88,375.26 -1341.65,932.09 -64,73.51 -137.44,138.09 -206.21,207.25 -701.88,-554.48 -1011.51,-838.04 -1910.45,-1083.74 -191.02,-52.2 172.69,-161.3 272.27,-206.05 175.85,-79.01 1185.97,-569.12 1289.83,-555.78 262.48,33.71 1258.61,415.31 1611.01,517.26 369.22,106.81 546.5,49.03 285.23,188.97l-0.03 0zm-5048.36 -2459.75c394.94,279.03 866.49,549.47 1279.03,822.42 158.17,106.07 27.94,80.1 -198.81,161.69 -1478.38,531.96 -2183.51,958.22 -3840.5,792.53 -372.84,-37.28 -744.96,-104.62 -1071.83,-295.39 -433.85,-278.48 -475.67,-621.97 -444.44,-1097.42 1529.44,0.16 2367.11,-97.46 3820.2,-590.08 202.8,-68.74 240.86,49.41 456.37,206.23l-0.02 0.02zm4220.88 333.41c184.87,85.35 334.14,169.53 532.09,227.77 -156.77,99.02 -1037.83,688.89 -1182.27,651.35 -226.17,-58.79 -735.11,-516.64 -1069.08,-650.29 -15.13,-125.34 87.29,-124.71 249.79,-216.81 68.2,-38.66 603.54,-367.33 642.66,-368.9 62.01,-2.49 695.23,301.15 826.81,356.88zm1555.18 -903.54c182.54,82.42 322.45,154.03 524.25,181.17 -101.99,108.13 -770.66,590.64 -908.2,533.53 -329.63,-136.85 -763.18,-442.21 -1145.2,-618.49 -68.61,-31.66 -64.3,-61.72 4.99,-127.64 87.66,-83.4 503.64,-343.76 630.66,-335.87 132.08,8.21 743.15,302.48 893.5,367.3zm-2612.71 394.7c78.53,66.48 20.24,14.57 -245.76,180.75 -210.9,131.75 -421.01,246.5 -630.49,375.42 -275.03,-143.82 -709.38,-450.29 -981.94,-623.59 -209.51,-133.22 -442.71,-253.72 -637.06,-396.27 132.31,-39.91 922.04,-378.47 956.09,-378.55 85.55,-0.17 1360.26,737.55 1539.16,842.25l0 -0.01zm-7439.91 347.83c46.9,-98.08 62.64,-243.03 154.8,-410.01 294.88,-448.73 686.75,-468.41 1185.91,-472.27 -33.38,213.3 -218.61,365.49 48.43,547.05 380.69,258.8 1007.52,-351.12 162.34,-706.19 -515.95,-216.75 -1268.82,-61.28 -1685.49,296.74 -247.8,212.93 -371.98,356.99 -465.57,674.12 -517.1,-37.08 -1146.89,-373.64 -1052.05,-964.77 118.66,-739.57 1600.44,-946 2193.4,-891.95 918.58,83.72 2090.46,633.28 2857.27,1140.33 113.88,75.3 175.24,118.66 266,219.7 -992.98,217.84 -1657.49,554.44 -2737.67,573.31 -306.34,5.36 -619.92,-5.06 -927.38,-6.04l0.01 -0.02zm16454.1 -1115.3c-516.27,874.42 -2441.69,1072.54 -3361.42,922.4 -533.36,-87.05 -1068.18,-298.25 -1603.23,-426.8 -341.88,-78.58 1576.96,-804.6 1664.99,-835.51 736.49,-249.55 2550.39,-737.74 3216.58,-192.28 198.2,162.28 167.97,323.62 83.08,532.19zm-8261.07 -480.48c215.55,102.82 476.2,250.14 695.8,325.22 -119.37,90.46 -580.92,441.81 -675.67,419.52 -46.54,-10.95 -1228.87,-686.36 -1276.8,-723.72 -190.3,-148.33 -30.7,-40.81 273.2,-261.67 292.08,-212.26 413.36,-54.03 740.59,118.85 84.53,44.65 155.99,81.74 242.89,121.81l-0.01 -0.01zm9944.02 1238.82c-1681.56,2107.41 -4643.75,1901.91 -6918.99,1017.55 -382.4,-148.64 -785.2,-365.35 -1151.29,-555.31 1113.13,-521.22 507.82,-606.8 1740.01,-308.21 987.42,239.27 1590.51,305.71 2617.4,202.01 803.16,-81.1 1866.51,-291.88 2319.37,-1036.71 288.97,-624.18 -259.05,-891.33 -785.32,-1015.06 -1234.72,-290.29 -2798.56,341.6 -3925.96,815.48 -167.18,70.39 -806.19,396.57 -925.12,396.76 -158.32,0.25 -1244.54,-636.96 -1361.71,-746.92 339.86,-154.4 780.94,-469.78 1151.1,-668.36 1797.68,-957.9 5320.54,-2446.31 7051.89,-720.54 658.65,656.52 796.57,1781.92 250.14,2534.55l-61.53 84.76 0.01 0zm-13065.88 -2905.75c636.22,355.63 1394.38,797.53 2048.18,1098.83 125.48,57.82 116.75,19.95 113.95,117.22 -195.15,30.36 -518.72,319.4 -673.51,273.37 -265.32,-78.91 -1004.96,-516.61 -1359.78,-677.72 -1971.73,-895.23 -2886.2,-1219.67 -5077.74,-1338.24 -468.95,-25.37 -1011.92,11.07 -1485.03,47.35 -1408.38,125.11 -3400.48,904.76 -4288.02,2043.52 -804.43,1032.14 -1229.26,2799.54 -455.97,3953.08 650.14,969.84 1526.77,1820.72 2711,2068.04 908.69,189.77 1478.74,-80.5 2216.82,-571.81 174.42,-116.11 -686.21,143.38 -718.12,151.07 -2296.43,552.87 -4735.34,-1562.95 -4196.74,-4008.97 481.65,-2187.44 2527.97,-3213.5 4616.17,-3248 1551.31,-10.9 3195.55,318.17 4643.31,868.47 446.62,169.76 1133.47,440.99 1550.91,650.3 286.34,143.57 778.41,333.6 961.72,529.3 -183.46,54.99 -852.71,361.33 -955.13,355.65 -92.55,-5.14 -1062.89,-489.24 -1258.96,-570.54 -1528.95,-633.9 -3344.15,-1066.65 -4852.37,-139.48 -1032.21,634.56 -281.17,1636.82 753.27,1766.89 6.07,614.92 144.68,930.48 672.12,1302.62 1000.19,665.38 2549.73,510.26 3667.18,243.31 617.22,-147.45 1456.37,-458.27 2021.71,-743.03 236.21,-118.98 220.05,-56.03 492.28,73.3 324.56,154.18 674.3,253.69 938.13,500.24 -735.91,396.34 -1475.09,749.52 -2329.46,706.58 -177.2,-8.91 -841.26,-45.7 -708.2,304.17 83.37,219.2 1128.74,232.53 1393.83,263.94 633.33,75.03 1311.22,263.92 1815.91,671.84 63.86,51.6 236.05,248.26 232.84,318.64 -0.09,2.06 -113.82,223.36 -121.93,243.54 -249.99,622.32 -181.43,1334.93 118.51,1930.15 350.91,696.34 778.48,227.67 846.93,-361.1 67.96,-584.53 -59.88,-956.26 -227.71,-1487.92 -91.21,-289.02 173.85,-509.73 374.87,-716.3 447.8,-460.17 1173.4,-1032.39 1855.52,-950.36 568.48,68.35 1560.43,314.45 1988.77,-184.86 -252.74,-410.37 -977.47,-337.13 -1397.06,-305.39 -956.89,72.37 -768.25,371.04 -1832.14,-142.7 -347.81,-167.96 -699.85,-360.72 -1048.37,-536.76 94.74,-94.8 745.38,-424.37 895.21,-513.02 467.48,-276.58 497.35,-141.1 1030.23,75.23 2061.65,836.95 4717.34,1140.42 6781.89,161.33 226.21,-107.28 402.31,-213.92 606.21,-358.25 135.57,-99.7 271.58,-198.92 407.35,-298.36 115.49,-89.04 152.67,-138.76 241.63,-252.33 1000.39,-1640.98 870.5,-3268.73 -1194.74,-3858.1 -1982.51,-565.79 -4862.05,585.92 -6549.58,1623.23 -98.71,61.33 -754.08,504.94 -808.71,490.05 -141.82,-38.66 -663.45,-416.2 -869.76,-532.84 -103.17,-58.33 -256.52,-150.97 -327.32,-242.7 344.66,-131.17 686.58,-363.66 1056.84,-525.99 3036.75,-1331.44 6164.79,-2815.96 9535.37,-1771.53 1722.4,549.31 2777.82,1686.73 2978.94,3514.64 174.17,1582.96 -454.21,2909.45 -1787.84,3755.98 -889.67,564.73 -2042.74,815.3 -3071,529.15 -303.43,-84.45 138.34,120.22 185.31,134.42 1658.09,500.89 3041.72,-73.81 4263.46,-1220.08 782.97,-734.61 1097.93,-1718.19 1117.7,-2782.86 15.22,-3478.7 -3559.75,-4729.55 -6508.09,-4483.65 -2415.58,201.45 -4716.6,1138.06 -6872.17,2193.73 -88.86,43.52 -1098.85,554.46 -1127.51,539.19 -478.96,-255.14 -1034.3,-615.05 -1511.88,-897.21 -3014.23,-1780.9 -5977.79,-2579.43 -9353.44,-1219.27 -249.57,100.56 -416.05,127.52 -615.34,324.27 722.27,-139.54 1325.51,-472.83 2108.94,-608.02 2089.8,-360.61 3669.42,323.87 5479.85,1259.56 290.14,149.94 575.51,306.3 860.76,465.28l0 -0.09z"/>
  <path class="fil1" d="M3671.25 5005.36c0,518.93 -191.54,1013.78 -520.4,1385.18 -456.05,515.02 -1025.09,626.26 -1667.46,626.26l0.14 3775.43c0,166.37 215.5,96.33 386.35,107.4 1022.16,66.23 1801.38,1017.39 1801.38,1903.89l0 246.86 27840.35 0c-0.27,-662.22 130.94,-1268.64 664.69,-1699.35 286.13,-230.9 697.81,-453.55 1098.22,-454.47 172.68,-0.41 424.69,59.55 424.69,-104.34l0 -3775.43c-604.11,0 -1244.19,-147.85 -1632.21,-590.8l-239.12 -290.19c-263.31,-379.06 -316.38,-756.64 -316.38,-1271.45 -571.13,-94 -3356.05,-35.29 -4304.72,-35.29 -1098.73,0 -584.45,-46.2 -458.58,493.73 304.19,0 4181.82,-54.15 4271.91,32.95 51.11,49.43 56.06,197.71 74.79,278.17 21.54,92.59 45.84,169.19 81.57,271.27 233.05,665.58 804.45,1190.31 1454.6,1438.7 49.2,18.8 219.81,70.89 272.17,80.64 179.91,33.48 248.15,-36.94 296.26,92.05 28.61,76.72 5.97,2576.77 5.97,2887.67 -799.32,186.09 -1378.42,387.78 -1859.71,1210.12 -220.97,377.56 -257.44,562.47 -257.44,977.6l-26993.91 0c0,-383.51 -87.37,-601.68 -240.66,-888.54 -354.76,-663.91 -1150.48,-1263.9 -1876.49,-1263.9 -7.41,-89.1 -12,-91.88 -11.33,-134.97l11.33 -2829.3c593,0 1358.73,-471.28 1687.47,-958.93 212.91,-315.83 341.77,-545.6 414.53,-926.26 24.84,-129.93 1.99,-130.9 50.42,-231.95 200.33,-96.02 4996.79,-35.28 5681.02,-35.28 -345.78,-650.89 -205.59,-493.73 -1199.58,-493.73l-4731.64 -2.86c-370.22,-2.04 -208.23,94.14 -208.23,179.15l0 -0.03z"/>
  <path class="fil1" d="M12315.99 3911.64c76.77,-115.22 132.21,-145.34 251.97,-207.07 299.67,-154.49 810.27,-322.48 1159.46,-322.48 -24.53,-293.91 -803.64,-389.45 312.48,-1875.22 189.93,-252.82 620.14,-771.18 887.37,-912.36l236.29 222.55c95.57,86.67 158.6,154.55 249.03,245l723.08 688.34c123.08,108.35 697.17,665.38 697.17,784.99 0,124.65 -255.42,299.35 -350.29,355.6 -765.01,453.65 -1321.01,574.89 -2177.93,786.11 -437.13,107.74 -1414.11,141.94 -1645.39,189.48 -138.01,28.37 -183.56,45.08 -343.25,45.08l0.01 -0.02zm741.27 -3422.86c0,391.85 -24.1,301.18 -383.29,781.26 -520.32,695.42 -1175.6,1531.33 -839.33,2598.18 89.05,282.49 151.84,284.74 164.04,431.29l10197.46 0c-0.14,-280.74 -140.96,-445.7 -370.71,-511.2 -177.9,-50.72 -183.68,-5.24 -236.95,-186.64 -229.18,-780.29 289.96,-895.66 289.96,-1489.74 0,-964.5 -1552.3,-1002.12 -1552.3,35.28 0,244.73 56.95,318.17 156.36,478.69 388.26,626.91 58.09,429.82 196.88,647.2 46.14,72.27 456.72,327.29 564.19,355.98l0 70.85c-149.22,0 -551.4,-107.21 -698.3,-148.75 -93.08,-26.31 -226.51,-64.7 -325.2,-98.24 -118.24,-40.18 -220.63,-65.62 -343.02,-115.7l-609.25 -237.63c-96.73,-43.11 -527.21,-281.83 -600.23,-281.83 -136.03,0 -181.22,141.14 -317.56,141.14 -126.66,0 -471.03,-433.38 -651.16,-583.97l-478.12 -474.75 168.49 -184.63c117.27,81.01 86.63,113.6 219.79,149.22l184.25 -168.33c-38.55,-124.6 -380.45,-469.36 -501.82,-501.82l-184.26 168.33c60.19,203.24 108.19,37.22 113.82,290.39 -139.11,50.26 -3.62,5.22 -141.28,105.86 -104.16,-69.58 -188.41,-165.37 -282.43,-247l-169.99 147.7 248.23 268.36 -155.06 177.67c-181.99,-119.48 -304.72,-307.47 -479.2,-461.14 -99.32,-87.49 -147.47,-110.96 -247.05,-211.68l-478.06 -474.63c-74.32,-63.16 -64.85,-46.27 -132.61,-114.42l-125.34 -121.64c-308.38,-268.77 -816.89,-927.61 -843.18,-659.52 -6.89,70.24 21.97,66.03 96.99,135.51 340.89,315.75 -158.12,99.9 -345.75,28.13 -300.67,-114.99 -429.33,-124.52 -826.97,-125.92 -731.82,-2.57 -282.03,49.94 -282.03,388.16l-0.01 -0.02z"/>
  <path class="fil1" d="M24172.16 5358.07c361.09,0 980.81,-40.36 1305.71,35.29 -103.66,155.59 -278,148.47 -260.84,408.41 14.09,213.15 126.59,382.09 311.47,425.57 622.75,146.44 1041.57,-950.91 303.68,-1329.39 -304.04,-155.96 -434.38,-108.42 -775.52,-103.52 -4716.59,67.87 -9499.67,-35.99 -14222.67,-35.94 61.45,-230.92 142.71,-33.54 213.2,-318.92 139.34,-564.15 -530.69,-711.81 -835.2,-303.38 -265.59,356.23 -172.49,1225.61 761.97,1223.2 4398.4,-0.54 8804.06,-1.32 13198.2,-1.32z"/>
  <path class="fil1" d="M29959.03 11815.37c215.53,0 406.28,-78.12 423.29,-282.01 -281.34,0 -1063.61,-338.19 -686.24,120.39 61.03,74.18 152.82,161.62 262.94,161.62l0.01 0z"/>
  <path class="fil1" d="M4694.53 6452.08c0,131.96 54.31,205.17 105.86,282.15 78.07,-28.32 117.8,-102.77 167.42,-185.13 95.13,-157.85 261.84,-376.14 291.02,-485.03 -178.42,0 -283.73,-23.35 -397.28,61.18 -72.57,54.02 -167.02,222.58 -167.02,326.83z"/>
  <path class="fil1" d="M4976.82 6875.37c240.92,0 397.1,-28.98 488.82,-181.77 107.64,-179.3 52.29,-367.54 -30.38,-523.67 -123.1,82.86 -429.16,596.18 -458.44,705.44z"/>
  <path class="fil1" d="M29641.59 11250.8c196.06,0 685.1,133.57 776.02,141.14 -11.16,-499.91 -669.41,-538.97 -776.02,-141.14z"/>
  <path class="fil1" d="M30100.31 6875.37c468.03,-125.41 386.13,-779.08 0,-811.31l0 811.31z"/>
  <path class="fil1" d="M4694.53 11392.08c0,117.38 106.25,286.03 184.48,344.87 135.63,102 284.42,38.91 379.82,78.42 -13.43,-160.96 -128.22,-246.95 -207.3,-357.01 -110.61,-153.93 -107.38,-265.16 -286.42,-313.14 -15.78,67.66 -70.58,201.35 -70.58,246.86z"/>
  <path class="fil1" d="M4941.53 11004.08c72.01,135.55 139.71,204.29 232.18,332.14 91.43,126.42 146,260.24 261.55,338 107.36,-202.76 129.6,-497.63 -111.21,-630.41 -178.57,-98.46 -190.02,-44.41 -382.52,-39.73z"/>
  <path class="fil1" d="M29606.3 6381.5c0,218.74 63.18,437.38 317.29,458.58l0 -776.02 -147.24 64.19c-40.2,30.39 -9.82,3.29 -54.49,51.37 -36.28,39.04 -115.55,145.25 -115.55,201.89l-0.01 -0.01z"/>
  <polygon class="fil1" points="17685.48,6617.01 17285.35,6617.01 17647.2,5972.44 18212.63,5972.44 "/>
 </g>
</svg>
