<?xml version="1.0" encoding="UTF-8"?>
<!DOCTYPE svg PUBLIC "-//W3C//DTD SVG 1.1//EN" "http://www.w3.org/Graphics/SVG/1.1/DTD/svg11.dtd">
<!-- Creator: CorelDRAW 2017 -->
<svg xmlns="http://www.w3.org/2000/svg" xml:space="preserve" width="238.183mm" height="233.58mm" version="1.1" style="shape-rendering:geometricPrecision; text-rendering:geometricPrecision; image-rendering:optimizeQuality; fill-rule:evenodd; clip-rule:evenodd"
viewBox="0 0 8593.75 8427.68"
 xmlns:xlink="http://www.w3.org/1999/xlink">
 <defs>
  <style type="text/css">
   <![CDATA[
    .fil0 {fill:#ECECEC}
   ]]>
  </style>
 </defs>
 <g id="Layer_x0020_1">
  <metadata id="CorelCorpID_0Corel-Layer"/>
  <g id="_2216651261200">
   <path class="fil0" d="M4393.11 2086.68c116.91,-6.81 304.57,42.04 414.28,-262.36 -311.36,35.39 -341.22,46.79 -414.28,262.36z"/>
   <path class="fil0" d="M5938.86 4664.11c136.8,-1.49 186.34,14.32 273.55,-66.48 48.89,-45.3 104.99,-138.47 127.37,-208.56 -238.33,48.77 -351,25.7 -400.92,275.04z"/>
   <path class="fil0" d="M603.72 4959.99c-22.7,-32.89 -137.3,-124.45 -180.42,-143.03 -5.02,231.93 5.88,376.51 215.22,433.64 10.09,-134.08 45.5,-174.28 -34.8,-290.61z"/>
   <path class="fil0" d="M2664 2589.63c35.12,24.45 224.74,53.31 276.08,47.89 103.49,-10.91 153.59,-81.41 194.04,-141.27l-60.77 -32c-24.96,-10.41 -42.9,-19.26 -63.61,-24.77 -129.12,-34.36 -269.2,67.11 -345.74,150.14z"/>
   <path class="fil0" d="M2995.37 5038.29c22.81,-8.72 196.03,-106.15 213.74,-121.69 84.11,-73.86 83.9,-120.14 85.34,-261.23 -206.02,45.74 -296.94,145.49 -299.09,382.92z"/>
   <path class="fil0" d="M3079.44 3237.34c70.16,187.5 121.9,324.5 368.85,318.1 -29.56,-104.3 -31.74,-164.67 -113.38,-232.5 -56.26,-46.75 -167.37,-73.53 -255.47,-85.6z"/>
   <path class="fil0" d="M6733.01 2979.59c39.72,-26.91 48.82,-41.5 68.43,-97.41 30,-85.53 17.6,-205.32 -9.93,-292.43 -145.12,174.66 -261.94,206.55 -156,463.24l97.49 -73.4z"/>
   <path class="fil0" d="M5648.99 2498.61c83.83,31.41 125.72,49.23 225.27,4.63 52.88,-23.69 159.62,-108.09 180.37,-153.14 -97.62,-6.06 -205.68,-42.76 -293.86,-25.29 -93.82,18.59 -126.68,92.85 -172.19,145.99l60.41 27.81z"/>
   <path class="fil0" d="M2341.92 814.07l38.27 -35.54c18.1,-19.13 25.94,-28.8 41.84,-48.16 97.88,-119.11 48.58,-296.11 -16.47,-389.55 -132.5,169.25 -183.56,292.76 -63.64,473.25z"/>
   <path class="fil0" d="M7973.24 5369.34c77.57,-7.86 170.85,-72.14 209.33,-125.63 51.09,-71.01 52.34,-181.81 57.07,-278.38 -25.34,9.59 -184.26,117.84 -207.29,141.33 -68.26,69.64 -64.78,141.04 -59.11,262.68z"/>
   <path class="fil0" d="M7229.06 5806.33c-109.45,-157.75 -128.58,-159.89 -342.49,-149.52 33.15,213.67 229.98,265.04 417.61,247.87 -19.95,-33.71 -47.47,-58.49 -75.12,-98.35z"/>
   <path class="fil0" d="M2189.7 2609.66c-31.8,49.37 -58.06,229.71 -48.74,292.02 11.92,79.73 99.24,148.47 150.24,184.17 22.25,-109.77 81.82,-145.64 35.78,-281.72 -24.12,-71.29 -103.35,-142.94 -137.29,-194.47z"/>
   <path class="fil0" d="M1385.75 6023.78c20.78,-7.63 185.94,-121.52 205.32,-141.37 69,-70.68 64.16,-141.84 59.15,-267.2 -223.92,40.03 -257.79,207.68 -264.48,408.58z"/>
   <path class="fil0" d="M3397.02 1694.77c20.72,-13.27 24.65,-17.08 44.39,-33.25 26.52,-21.73 29.2,-22.08 50.75,-38.51 140.51,-107.14 87.1,-327.2 66.61,-370.8l-11.65 -19.31c-110.65,192.81 -244.89,115.13 -150.09,461.87z"/>
   <path class="fil0" d="M275.42 3414.45c1.87,2.71 3.64,6.87 4.8,8.64l161.26 173.29c100.03,80.2 153.82,40.66 274.61,23.76 -116.15,-235.57 -172.91,-213.58 -440.67,-205.7z"/>
   <path class="fil0" d="M6453.19 758.65c119.36,-143.03 100.83,-350.12 -38.19,-477.1l-79.6 254.58c-4.5,99.81 41.2,143.98 117.79,222.52z"/>
   <path class="fil0" d="M8147.95 3711.45c-27.68,-36.49 -61.52,-51.13 -113.54,-48.59 90.59,-11.9 171.08,21.03 216.63,65.33 -108.67,-6.2 -171.62,-17.44 -263.3,-32.42l44.32 61.22c41.65,39.01 99.53,59.16 164.88,59.64 65.41,0.49 179.53,-37.47 236.98,-65.5 -35.31,-29.25 -69.92,-39.7 -105.76,-62.81 -69.58,-44.86 -136.83,-106.78 -246.97,-74.21 -52.07,15.4 -86.03,32.19 -113.25,77.81 50.77,18.4 109.31,22.08 180.02,19.52z"/>
   <path class="fil0" d="M2965.74 3680c-114.41,-99.22 -218.77,-105.5 -353.38,-3.89 130.63,71.02 255.38,130.11 353.38,3.89z"/>
  </g>
  <g id="_2216642750976">
   <path class="fil0" d="M1982.22 4697.61c-87.46,-86.87 -100.53,-226.45 -79.73,-377.53 38.36,58.54 127.29,271.05 133.18,357.46 -28.42,-54.34 -48.68,-143.25 -87.87,-195.51 -16.95,85.37 -2.7,153.31 34.42,215.57zm130.18 8.89c-17.35,-95.52 1.87,-100.76 11.68,-182.66 -1.91,-3.04 -3.69,-7.31 -4.66,-9.69l-20.05 -70.94c-6.42,-28.79 -13.71,-53.31 -22.84,-77.56 -42.34,-112.37 -218.11,-276.67 -264.24,-301.79 0.46,153.73 -47.23,328.78 -11.1,461.03 27.78,101.69 168.87,209.04 245.52,251.59l50.09 -178.48 15.6 108.5z"/>
   <path class="fil0" d="M3102.94 4392.83c-74.72,5.45 -141.69,11.67 -212.35,-12.99 -23.72,-8.28 -121.36,-50 -135.29,-69.29 61.8,-1.96 123.17,-5.33 184.85,-7.84 28.24,-1.15 61.42,-2.77 89.39,-2.31l-106.42 25.38c29.7,48.05 132.49,38.53 179.82,67.05zm-617.15 -89.14c22.56,18.87 320.42,159.52 361.38,168.65 141.82,31.61 285.4,-36.4 381.72,-130.46 -94.92,-83.55 -222.75,-171.94 -352.21,-172.74 -104.49,-0.64 -320.5,82.52 -390.9,134.55z"/>
   <path class="fil0" d="M6845.17 3301.92l122.5 -157.88c-114.09,34.77 -115.21,51.97 -170.68,118.97 33.09,-106.3 157.55,-198.21 292.71,-233.61l-82.79 109.93c-40.94,49.12 -106.34,122.5 -161.74,162.6zm-93.41 66.04c173.59,-50.41 277.93,-35.08 374.71,-160.3 62.99,-81.51 137.87,-250.34 152.41,-377.81 -360.29,143.22 -508.11,165.02 -527.12,538.1z"/>
   <path class="fil0" d="M1235.81 3538.06c-98.68,-79.14 -117.53,-198.54 -116.18,-357.68 9.74,11.11 2.78,0.44 18.5,22.69 23.19,32.83 -18.81,-30.37 10.24,15.99 9.16,14.62 15.72,27 23.39,40.37 38.73,67.53 104.39,178.96 115.82,245.09 -40.5,-49.97 -60.56,-130.57 -104.89,-169.84 -4.33,90.15 17.32,138.78 53.11,203.38zm-69.57 -6.01c47.08,30.96 102.15,72.81 151.58,81.92 12.6,-217.32 129.48,-412.51 -313.11,-682.85 8.68,308.65 -32.12,473.6 161.54,600.92z"/>
   <path class="fil0" d="M4074 1464.51c-87.02,-60.11 -127.39,-221.71 -109.74,-362.14 44.94,90.41 143.95,225.63 161.41,329.01l-12.3 -16.43c-30.44,-48.77 -59.21,-124.96 -90.14,-154.16 -4.48,87.62 11.74,142.9 50.77,203.72zm80.06 81.48c23.61,-181.77 67.15,-286.85 -29.25,-437.93 -35.28,-55.28 -208.44,-217.71 -277.19,-250.52 3.31,131.63 -8.54,358.95 36.29,465.62 37.47,89.17 174.78,192.65 270.15,222.83z"/>
   <path class="fil0" d="M2486.57 3335.26c31.95,-137.87 174.8,-213.99 298.86,-252.94 -19.86,51.79 -179.47,223.2 -229.31,260.8l108.9 -145.29c-87.64,16.71 -155.1,71.21 -178.45,137.42zm-39.84 86.39c173.77,-45.59 284.39,-41.3 377.85,-162.64 61.18,-79.43 135.63,-250.67 148.81,-376.52 -244.88,156.44 -488.93,49.16 -526.66,539.16z"/>
   <path class="fil0" d="M7042.03 5342.48c89.89,-123.6 165.23,-145.07 359.55,-165.5 -46.49,55.23 -270.42,199.06 -350.42,204.91 40.7,-10.25 70.83,-30.57 107.75,-53.97l92.73 -76.49c-88.91,9.18 -181.4,36.93 -209.62,91.05zm-59.7 62.58c177.78,30.29 308.38,26.46 431.75,-63.74 62.6,-45.76 190.17,-205.13 226.13,-300.57 -126.89,17.28 -356.19,27.3 -451.64,74.19 -130.26,63.99 -137.65,186.86 -206.25,290.12z"/>
   <path class="fil0" d="M1361.1 5320.52c-132.49,-22.47 -208.79,-169.13 -254.85,-280.42 86.35,41.73 255.4,177.64 305.77,255.56 -32.54,-35.23 -118.73,-109.93 -178.82,-137.82 25.68,90.64 57.27,127.27 127.9,162.68zm-463.36 -459.09c64.8,105.72 109.23,267.23 184.18,358.14 105.57,128.06 173.39,122.71 381.92,141.81 -49.7,-172.89 -55.36,-277.64 -174.51,-361.56 -108.8,-76.63 -249.66,-113.63 -391.59,-138.39z"/>
   <path class="fil0" d="M6532.24 1104.25c35.37,-183.61 108.39,-260.32 248.97,-328.69 -19.57,52.57 -79.5,157.44 -108.78,209.11 -39.9,70.43 -51.1,79.35 -101.78,126.59 -11.3,10.53 -10.2,10.16 -19.35,18.39 -23.52,21.14 -1.93,2.86 -23.3,19.14 28.71,-44.87 12.79,-3.64 55.5,-49.66 15.16,-16.33 25.48,-34.8 35.31,-53.56 18.89,-36.04 52.16,-94.93 62.86,-133.74 -69.05,33.24 -136.45,98.77 -149.43,192.42zm-21.81 72.73c263.22,-131.7 392.76,-103.94 418.14,-630.61 -45.61,21.35 -100.49,72.63 -155.32,105.77 -239.1,144.55 -271.41,154.65 -262.82,524.85z"/>
   <path class="fil0" d="M5006.05 2862.07c75.24,-80.87 223.53,-120.44 377.42,-98.19 -107.78,85.51 -289.52,134.67 -422.1,152.7 2.86,-3.13 11.29,-13.18 12.69,-14.89l11.52 -15.98c0.38,24.78 35.1,21.77 49.35,19.2 18.51,-3.33 158.11,-61.81 189.6,-94.21 -81.02,-6.35 -171.24,6.29 -218.47,51.36zm-73.77 60.37c164.49,37.16 281.65,87.01 437.12,4.79 89.66,-47.42 221.76,-188.52 271.09,-263.63 -158.28,5.84 -339.9,-38.41 -473.66,9.76 -133.6,48.12 -153.65,155.17 -234.55,249.08z"/>
   <path class="fil0" d="M5692.67 4456.56l-20.74 -20.75c29.14,-53.33 15.68,-77.36 1.68,-141.66 -12.68,-58.22 -7.28,-77.46 -37.12,-119.18 -24.96,108.17 -29.09,101.1 -0.4,215.65 -73.4,-104.13 -62.51,-291.73 -10.25,-371.18 74.48,167.19 56.49,365.59 66.83,437.13zm0 0c195.35,-259.51 76.91,-485.04 -105.01,-712.79l-22.27 53.06c-31.97,133.55 -81.93,264.12 -78.71,367.05 5.7,181.99 151.85,239.35 197.01,320.2l8.98 -27.53z"/>
   <path class="fil0" d="M6041.92 1397.38c-50.41,-169.33 2.71,-254.71 74.38,-384.69 14.92,89.14 18.19,308.77 -18.68,378.82l1.21 -210.41c-59.45,56.36 -59.02,134.22 -56.91,216.28zm29.41 89.8c83.68,-93.47 178.5,-214.56 185.64,-339.6 5.79,-101.31 -69.64,-345.07 -122,-402.78l-178.08 351.51c-25.72,89.3 -22.86,147.09 15.64,225.77 28.62,58.5 62.61,127.78 98.79,165.1z"/>
   <path class="fil0" d="M2975.46 1937.43c-23.74,-54.55 -20.51,-135.9 -4.31,-199.07 8.34,-32.52 22.4,-54.18 34.44,-80.12 38.16,-82.19 20.71,-52.38 56.95,-77.25 -1.56,113.07 15.24,276.55 -32.4,368.28l6.8 -220.42c-25.93,54.36 -55.34,20.33 -61.48,208.58zm28.34 99.11c48.55,-45.26 64.71,-90.26 114.64,-138.28 45.21,-43.48 68.74,-106.64 76.21,-190.81 10.53,-118.7 -38.79,-252.48 -85.2,-360.25l-29.27 -47.72 -184.39 350.47c-25.67,85.21 -24.58,138.53 11.61,216.49 29.13,62.76 56.17,129.97 96.41,170.1z"/>
   <path class="fil0" d="M4331.3 648.85l68.38 -227.37 -47.25 38.36c-38.49,41.8 -63.61,128.52 -55.39,185.23 -8.6,-108.88 -10.14,-136.48 34.53,-232.16 20.36,-43.62 89.88,-127.12 121.22,-151.5 1.94,107.66 -73.71,322.82 -121.49,387.44zm-29.21 60.17c300.44,-235.64 304.33,-249.98 240.95,-709.02l-251.17 284.55c-39.51,62.6 -68,123.77 -54.17,212.99 10.43,67.26 29.54,167.75 64.4,211.48z"/>
   <path class="fil0" d="M6155.65 3512.83c-8.01,-159.73 99.24,-302.08 190.4,-352.18 -38.23,118.24 -75.27,284.65 -141.72,367.28l68.79 -216.36c-48.65,28.92 -111.55,107.3 -117.47,201.26zm-5.95 87.83c97.39,-56.62 218.81,-129.54 270.11,-234.57 75.19,-153.93 37.29,-281.98 31.13,-453.75l-138.3 130.63c-230.42,226.61 -226.13,179.3 -162.95,557.69z"/>
   <path class="fil0" d="M5904.03 5181.82l-33.77 30.78c-1.45,1.75 -4.04,5.7 -5.99,8.6l-19.53 -8.28c55.58,-90.08 6.03,-196.52 324.59,-316.97l-85.73 107.15c-16.04,18.54 -17.37,26.3 -31.49,45.27 -31.94,42.89 -97.23,109.53 -148.07,133.45zm-39.77 39.38c197.47,-17.52 252.16,-49.55 352.7,-161.16 74.17,-82.33 104.6,-239.54 142.6,-359.9 -30.98,8.27 -340.25,139.17 -368.46,159.12 -127.21,89.93 -137.84,183.2 -162.77,377.85l35.92 -15.91z"/>
   <path class="fil0" d="M4392.72 3297.94c-36.43,-46.97 -56.52,-106.68 -61.51,-180.86 -2.37,-35.31 1.39,-65.16 7.24,-98.93l30.83 -92.06c39.54,152.45 84.09,249.15 77.74,420.47l23.82 -28.95c2.18,-3.3 3.92,-6.17 5.91,-9.59 68.13,-116.7 82.24,-232.59 37.34,-362.18 -28.66,-82.73 -158.57,-248.2 -209.53,-295.24 -20.77,137.06 -85.47,320.47 -71.33,444.53 13.65,119.74 153.8,253.84 219.82,292.43 -12.18,-57.89 -19.09,-35.54 -60.33,-89.61z"/>
   <path class="fil0" d="M1984.4 841.58c99.03,165.68 165.21,207.1 206.46,394.93 -89.26,-57.34 -105.81,-51.19 -163.33,-157.11 -32.01,-58.94 -64.85,-176.6 -43.13,-237.82zm222.34 423.13c-10.01,-200.77 54.7,-259.32 -63.12,-428.42 -44.85,-64.37 -213.8,-192.89 -302.73,-230.7 63.73,430.32 -27.46,492.2 365.86,659.12z"/>
   <path class="fil0" d="M7507.74 3729.49c-1.69,2.38 -5.11,2.54 -5.94,6.46 -1.2,5.67 -9.88,10.87 -11.82,13.47 -24.22,32.45 -5.82,-4.71 -20.47,33.86 -55.6,-7.72 3.21,-267.02 235.13,-370.33 -20.21,55.7 -135.56,281.25 -196.89,316.54zm-38.23 53.79c327.02,-68.03 368.7,-311.07 385.52,-603.62 -58.76,32.38 -96.87,72.49 -161.79,110.81 -275.91,162.85 -264.98,207.47 -258.09,518.05l34.36 -25.24z"/>
   <path class="fil0" d="M3909.03 3962.7c-132.34,56.88 -329.3,6.78 -408.27,-99.01 64.76,-1.16 187.76,3.49 254.41,9.36 101.44,8.93 137.59,44.36 207.81,53.72l-53.95 35.94zm-63.51 -144.09c-151.66,-131.29 -391.47,-72.35 -559.35,3.04l-35.45 21.49c-1.53,-2.61 -5.82,4.31 -8.44,6.8 124.39,54.83 230.29,151.66 344.85,188.18 186.43,59.43 260.88,-39.05 397.55,-90.68l-139.15 -128.82z"/>
   <path class="fil0" d="M3453.08 4873.79c36.81,-40.98 51.54,-65.61 92.23,-105.27 124.91,-121.75 172.56,-236.42 82.18,-409.59 -223.95,130.72 -229.17,265.4 -174.41,514.86z"/>
  </g>
  <g id="_2252537572816">
   <path class="fil0" d="M7242.7 4715.66c24.26,-21.63 -8.76,-4.49 27.97,-13.39 12.67,-3.07 33.87,-3.97 47.48,-4.79 95.12,-5.74 129.24,-23.55 217.74,-62.03 84.74,-36.84 175.8,-76.77 256.12,-113.48 -68.43,-36.65 -243.43,-13.39 -306.95,10.99 -98.01,37.62 -160.59,67.31 -200.61,136.38 165.17,-246.66 513.54,-294.45 808.01,-248.53 -90.89,56.88 -282.24,132.67 -389.16,178.32 -204.37,87.25 -215.34,95.05 -460.6,116.53zm-58.84 15.77c77.36,16.16 150.02,23.43 225.37,41.69 70.8,17.16 138.72,48.1 209.51,59.37 209.34,33.32 441.19,-80.49 591.12,-197.85 43.78,-34.27 366.11,-372.48 383.89,-409.85 -318.24,22.51 -645.63,-81 -925.04,8.13 -149.97,47.84 -206.19,124.23 -280.81,216.52l-204.03 281.98z"/>
   <path class="fil0" d="M2557.6 2250.79c-210.55,-12.91 -227.41,48.5 -497.95,-108.75 -82.79,-48.12 -281.3,-255.29 -305.5,-311.59l554.47 228c49.78,24.97 128.04,67.51 153.14,112.17 -131.88,-62.6 -278.84,-145.4 -431.54,-186.29 127.35,158.33 204.59,267.83 477.19,262.89l0 -44.04c26.21,28.18 27.86,19.48 50.21,47.61zm-1284.38 -649.51l64.61 66.12c161.09,157.83 304.35,410.03 428.19,501.92 319.87,237.32 397.16,160.02 838.62,107.47 -58.54,-97.85 -128.9,-185.62 -187.99,-313.2 -174.82,-377.48 -764.04,-410.25 -1143.43,-362.31z"/>
   <path class="fil0" d="M6131.79 2075.55c37.83,-52.6 71.24,-87.49 133.02,-123.94 187.31,-110.54 370.38,-158.66 604.29,-138.58 -96.81,71.13 -265.89,158.46 -380.38,222.28 -165.8,92.43 -225.48,127.75 -440.71,157.12 23.95,-30.37 24.46,-22.24 42.51,-62.15 -1.06,4.1 -4.12,13.73 -3.92,15.89 0.12,1.32 1.68,6.32 1.89,7.51 0.25,1.39 3.43,10.21 3.71,8.27 0.31,-2.22 2.86,6.27 4.6,9.23 140.07,-19.49 424.99,-177.79 481.68,-234.44 -277.69,-16.64 -315.44,65.77 -446.69,138.82zm-137.71 140.36c403.11,8.41 694.57,216.26 1124.61,-339.78 69.56,-89.94 174.51,-211.07 227.79,-308.99 -406.55,58.43 -632.05,-12.73 -900.64,94.27 -141.37,56.32 -192.86,121.7 -264.12,232.77 -55.26,86.15 -143.57,227.22 -187.64,321.73z"/>
   <path class="fil0" d="M1374.65 4394.36c-193.53,61.26 -262.56,81.96 -489.07,15.9 -113.81,-33.19 -281.16,-144.06 -352.17,-211.45 150.65,6.13 333.02,34.78 484.33,54.68 294.76,38.77 235.61,71 397.42,131.81l-40.51 9.05zm93.08 -5.95c-48.55,-22.7 -110.47,-80.16 -150.57,-116.46 -51.56,-46.67 -74.43,-83.45 -119.97,-134.66 -192.81,-216.77 -538.05,-215.83 -808.75,-144.5 -97.94,25.8 -322.73,70.13 -388.43,120.79 105.68,44.74 254.89,144.68 338.04,208.58 105.78,81.3 169.69,147.18 322.97,211.69 144.33,60.75 273.82,79.21 431.72,23.57 68.61,-24.18 129.72,-50.16 191.14,-76.92 32.73,-14.26 62.67,-27.97 97.42,-42.59l86.43 -49.49z"/>
   <path class="fil0" d="M4823.49 3757.56c27.93,-19.26 61.36,-30.88 98.47,-55.79 71.1,-47.72 189.95,-173.5 254.33,-236.15 -170.62,21.71 -291.3,111.56 -350.52,212.72 32.83,-112.22 135.45,-189.21 218.15,-249.05 87.58,-63.36 233.84,-100.09 349.88,-125.83l-257.33 243.8c-99.55,82.21 -151.95,168.44 -312.98,210.3zm-82.7 46.79c23.76,0.76 380.56,-32.95 409.18,-39.59 312.15,-72.45 501.46,-460.78 599.31,-756.19 -112.69,35.16 -216.09,77.97 -344.42,105.72 -251.22,54.33 -453.68,107.29 -557.35,360.33 -40.06,97.78 -68.41,248.79 -106.73,329.73z"/>
   <path class="fil0" d="M5896.83 5561.54c65.51,22.9 14.57,49.27 179.76,124.96 60.95,27.93 161.55,82.29 222.46,97.22 -71.02,-153.78 -212.79,-182.3 -270.52,-221.65 198.11,10.36 396.59,186.8 484.09,346.71 -98.4,-26.23 -236.96,-101.38 -336.07,-144.92 -156.16,-68.6 -188.3,-111.5 -279.72,-202.32zm-41.94 -26.85c34.5,74.95 73.57,111.82 142.54,268.26 133.42,302.62 611.29,322.61 901.37,311.39 -58.34,-84.61 -126.23,-127.76 -237.67,-299.33 -11.24,-17.31 -27.25,-40.05 -42.28,-60.15 -234.96,-314.21 -419.55,-247.22 -763.96,-220.17z"/>
   <path class="fil0" d="M2620.42 1234.9c66.93,-81.71 126.87,-243.68 159.39,-370.18 -143.4,71.05 -154.24,203.06 -198.95,272.85 4.12,-244.92 197.45,-412.57 309.84,-496.59 -18.62,90.13 -78.34,225.39 -112.81,318.57 -43.94,118.78 -81.64,213.56 -157.47,275.34zm-56.77 82.36l62.24 -39.7c22.14,-16.2 37.4,-27.57 59.12,-41.77 144.11,-94.27 213.11,-81.3 317.31,-281.29 99.38,-190.76 90.68,-476.27 60.19,-707.55 -58.88,52.94 -139.02,152.88 -200.32,198.35 -512.94,380.54 -314.6,522.95 -298.53,871.97z"/>
   <path class="fil0" d="M2139.56 5803.67c65.32,-67.78 471.66,-406.26 590.92,-384.06 -41.37,32.39 -35.62,3.76 -116.79,45.87 -81.48,42.27 -219.62,173.72 -265.12,206.29 53.94,-2.33 127.64,-20.39 174.6,-40.94 69.96,-30.61 88.89,-67.89 140.17,-95.83 -88.21,154.23 -283.99,238.32 -523.78,268.67zm-344.19 244.2c112.75,-23.4 205.8,-57.29 331.53,-73.34 233.9,-29.85 417.91,-72.78 524.14,-293.05 45.53,-94.4 83.53,-189.75 114.67,-292.13 -347.48,40.38 -569.52,-71.72 -834.18,400.76 -35.23,62.88 -119.06,199.79 -136.16,257.76z"/>
   <path class="fil0" d="M4520.78 1272.08c32.27,-183.05 264.88,-317.14 430.31,-368.15l-134.22 172.73c-69.85,85.5 -151.33,194.52 -238.41,239.1 40.83,-59.36 163.04,-169.67 206.16,-253.41 -140.45,50.25 -199.75,89.94 -263.85,209.73zm-61.28 125.4c51.49,-6.48 231.47,-51.1 305.06,-68.52 265.75,-62.91 415.47,-461.03 455.48,-714.89 -87.56,39.49 -156.25,81.09 -261.28,120.14 -116.88,43.45 -179.22,57.62 -271,123.72 -211.62,152.41 -163.27,257.2 -228.26,539.54z"/>
   <path class="fil0" d="M801.78 5645.77c171,-6.48 191.5,15.04 332.36,47.34 -207.87,121.65 -474.24,133.19 -688.75,-27.68 106,-14.47 246.57,-15.5 356.39,-19.66zm-764.31 32.52c89.93,-12.6 411.06,196.89 562.36,228.65 315.58,66.25 420.77,-152.84 576.22,-197.31l-125.55 -89.04c-120.01,-77.76 -164.2,-179.16 -427.23,-173.55 -184.87,3.94 -304.3,74.44 -463.88,148.75 -23.63,11 -45.66,19.82 -68.48,32.4 -5.2,2.86 -28.77,19.06 -32.2,22.3 -6.83,6.45 -12.84,20.37 -14.35,17.83 -1.44,-2.42 -4.93,6.43 -6.89,9.97z"/>
   <path class="fil0" d="M7440.09 5760.72c272.74,-93.04 367.37,-74.12 636.63,103.36 -79.21,9.21 -262.03,-12.71 -350.59,-20.77 -143.49,-13.05 -174.86,-33.11 -286.03,-82.59zm-34.93 -6c78.23,64.74 131.37,111.34 195.56,176.23 211.35,213.67 620.41,93.87 850.5,-10.76l-236.75 -144.95c-167.2,-118.11 -326.36,-238.01 -560.8,-143.99l-190.89 88.82c-9.89,5.14 -23.47,12.15 -33.69,18.29 -20.51,12.34 -15.11,9.24 -23.94,16.36z"/>
   <path class="fil0" d="M4835.96 5322.65c-14.59,10.78 -14.78,7.08 -29.18,20.33 -21.9,20.15 -11.52,6.25 -22.99,30.39l-17.03 -13.23c26.87,-46.27 23.51,-115.57 54.01,-168.32 82.21,-142.19 215.95,-234.64 381.01,-285.51 -12.82,25.42 -21.95,30.65 -39.23,53.6 -17.69,23.5 -20.54,28.81 -44.4,57.95l-173.54 221.2c-31.03,39.47 -57.11,59.33 -108.65,83.58zm-52.17 50.73c50.84,-2.32 243.42,-46.93 290.61,-67.74 224.58,-99.05 346.47,-452.02 376.95,-683.55 -81.69,33.61 -164.7,89.34 -259.51,125.52 -426.77,162.86 -393.04,253.45 -456.18,650.12 18.63,-4.48 9.7,0.51 28.92,-8.39 21.06,-9.76 14.96,-11.58 19.21,-15.95z"/>
   <path class="fil0" d="M2138.68 3743.42c-138.23,-45.13 -221.76,-282.27 -252.31,-422.26 95.87,67.99 140.46,159.72 219.91,225.45 70.32,58.17 143.2,159.67 168.62,266.28 -54.16,-34.28 -105.16,-26.06 -136.23,-69.47zm-497.22 -711.46c62.64,158.96 104.68,431.89 182.26,554.92 111.2,176.33 244.01,197.91 479.02,258.48 -57.09,-368.46 -3.91,-505.21 -403.66,-703.07 -66.98,-33.15 -191.75,-92.84 -257.63,-110.33z"/>
   <path class="fil0" d="M6035.39 4211.8c163.45,-206.86 306.82,-236.76 593.8,-208.69 -73.14,46.33 -184,87.75 -272.01,128.04 -138.07,63.2 -160,64.24 -321.79,80.65zm-36.9 11.77c277.83,35.17 464.45,198.91 810.87,-161.92l170.21 -194.61c-341.97,25.09 -617.83,-133 -843.06,158.04 -25.37,32.78 -126.15,167.26 -138.01,198.49z"/>
   <path class="fil0" d="M5381.13 2151.35c-113.39,-238.4 -10.58,-416.37 111.87,-580.75 -0.87,75.68 -30.37,380.7 -56.19,456.88 -17.07,50.37 -40.42,74.88 -55.68,123.87zm-9.85 31.69c2.37,-2.42 5.77,-9.71 6.87,-7.5l159.77 -161.85c55.82,-49.02 95.21,-128.99 113.67,-231.13 25.63,-141.79 -39.22,-453.8 -102.11,-557.06 -43.54,51.55 -87.38,147.89 -132.33,209.4 -98.75,135.15 -230.06,283.11 -158.66,499.33 27.71,83.93 67.13,184.99 112.79,248.8z"/>
   <path class="fil0" d="M3755.38 2381.1c-90.9,-147.21 -94.84,-338.88 -2.92,-495.33 17.73,83.89 31.98,180.52 44.5,265.08 21.15,142.91 1.46,159.4 -6.93,278.5 -14.25,-23.86 -12.91,-22.69 -34.64,-48.26zm42.5 84.25c44.7,-241.79 328.94,-259.59 -10.57,-803.08 -32.09,-51.36 -28.41,-67.56 -78.07,-102.93 -20.28,185.85 -127.61,308.17 -137.06,490.88 -5.92,114.67 20.4,166.13 71.76,238.71l153.93 176.42z"/>
   <path class="fil0" d="M1374.65 4394.36c-12.38,-20.84 3.37,-3.09 -18.2,-21.71 -84,-72.55 -445.06,-103.13 -524.39,-101.96 171.75,125.29 281.42,200.12 542.59,123.67z"/>
   <path class="fil0" d="M686.67 5681.74c82.88,65.81 196.54,83.09 303.75,70.37 14.98,-1.78 37.17,-5.01 50.96,-10.29l43.31 -29.36c2.23,-1.99 5.49,-5.73 8.18,-8.65 -73.04,-58.88 -311.26,-31.61 -406.21,-22.07z"/>
   <path class="fil0" d="M7468.68 5749.24c59.72,79.93 283.91,75.17 373.35,74.4 -67.67,-89.25 -237.64,-118.15 -373.35,-74.4z"/>
   <path class="fil0" d="M2138.68 3743.42c52.65,26.22 55.62,38 118.19,57.84 -12.37,-74 -62.82,-136.38 -105.79,-172.23 -50.83,-42.41 -79.65,-90.22 -129.32,-126.65 9.78,45.32 22.18,97.37 43.05,136.25 34.62,64.49 59.48,72.33 73.87,104.79z"/>
   <path class="fil0" d="M4835.96 5322.65l158.3 -186.71c25.15,-30.4 33.17,-34.39 46.85,-69.09 -129.83,47.89 -251.99,133.24 -262.52,278.57l57.37 -22.76z"/>
   <path class="fil0" d="M6062.33 4198.47c114.08,-5.62 325.19,-96.1 349.5,-130.06 -118.87,-3.91 -303.53,-3.11 -349.5,130.06z"/>
   <path class="fil0" d="M5363.97 2123.93c52.59,-33.25 54.31,-65.94 65.64,-155.59 8.05,-63.66 13.41,-126.52 18,-190.19l-21.16 21.68c-80.34,101.64 -87.62,202.52 -62.48,324.1z"/>
   <path class="fil0" d="M3755.38 2381.1c61.65,49.79 31.86,3.54 34.34,0.61 18.95,-22.45 -9.72,-219.87 -23.04,-266.34 -9.89,-34.49 -9.45,-21.94 -11.91,-25.9 -43.74,99.26 -49.76,202.91 0.61,291.63z"/>
  </g>
  <path class="fil0" d="M2124.07 4523.84c-9.81,81.9 -29.02,87.14 -11.68,182.66 14.83,104.05 74.64,140.6 114.36,197.1 -439.81,-68.11 -505.86,-518.08 -692.99,-847.96 -375.84,-662.52 -827.91,-555.74 -839.02,-244.64 54,-21.7 58.46,-63.8 134.42,-103.5 457.03,-238.85 739.83,743.38 924.78,1007.85 63.45,90.73 118.26,153.73 224.43,206.83 209.18,104.61 555.42,142.01 673.15,208.86 -73.25,29.75 -189.24,32.17 -273.17,49.5 -246.76,50.97 -452.19,154.27 -721.37,207.65 -761.08,150.92 -906.98,-192.37 -953.68,-217.13 -42.61,302.49 424.44,366.91 696,352.78 327.87,-17.06 567.87,-113.23 850.22,-205.32 141.72,-46.22 329.08,-31.39 484.25,-18.9 399.89,32.19 434.64,8.69 668.27,247.58 106.4,108.79 228.55,207.84 299.57,347.54 -23.4,39.43 -79.5,99.93 -112.8,139.71 -239.92,286.67 -564.95,747.31 -646.2,1110.93 -57.06,255.34 90.45,678.03 -116.93,862.53 -174.32,155.08 -549.4,356.77 -591.88,419.77 895.59,0 1234.65,0 2206.88,0 -75.41,-129.16 -211.35,-164.07 -478.51,-360.3 -337.31,-247.75 -313.5,-596.43 -202.28,-996.15 82.13,-295.16 162.92,-519.26 349.66,-745.38 510.23,-617.81 721.65,-572.76 1415.41,-773.56 130.17,-37.68 281.31,-95.65 444.15,-103.33 170.64,-8.04 363.4,-15.32 529.17,20.68 467.78,101.58 982.91,274.5 1318.64,-56.85 123.82,-122.21 40.17,-313.4 -101.75,-318.01 16.07,123.6 196.15,169.57 -78.82,328.09 -144.61,83.37 -275.95,101.11 -464.82,72.45 -163.36,-24.79 -289.5,-77.89 -436.7,-110.93 -155.47,-34.89 -327.11,-41.47 -487.88,-57.5l70.64 -38.76c25.4,-10.41 47.32,-20.23 70.85,-30.53 48.35,-21.18 91.68,-38.74 139.11,-64.8 403.74,-221.88 580.34,-679.5 808.09,-1012.18 70.54,-103.04 213.53,-217.68 342.15,-268.65 121.84,-48.28 275.82,1.73 333.54,-36 3.09,-58.26 -17.43,-40.64 -61.78,-63.04 -42.51,-21.46 -32.8,-30.79 -76.57,-50.83 -67.97,-31.11 -151.33,-29.06 -220.65,-3.47 -492.16,181.62 -586.37,691.94 -944.41,1092.34 -85.89,96.05 -140.23,151.04 -286.07,223.26 -191.93,95.05 -523.31,224.37 -742.21,266.82 14.61,-36.09 44.24,-70.47 66.84,-114.83 71.92,-141.14 86.23,-311.63 103.99,-469.6 47.57,-423.06 112.33,-789.26 439.28,-1061.57 92.43,-76.98 234.52,-168.76 359.09,-213.41 73.6,-26.38 68.91,-0.05 124.82,-56.25l-63.29 -16.49c-65.07,-13.74 -97.54,-17.46 -161.94,9.25 -61.91,25.67 -131.86,64.83 -183.89,96.75 -406.4,249.25 -532.58,599.6 -598.61,1094.77 -63.24,474.25 7.75,460.71 -399.8,732.1 -144.7,96.35 -238.73,93.9 -436.48,137.03 -146.5,31.96 -302.13,76.38 -449.34,106.78 19.09,-47.87 53.31,-98.54 78.95,-146.69 197.22,-370.31 272.32,-892 216.39,-1303.71 -8.8,-64.77 -21.98,-126.48 -44.03,-184.31 -21.48,-56.34 -59,-96.31 -65.63,-155.71 -22.71,-203.62 112.51,-716.12 187.38,-925.61 24.73,-69.17 265.8,-278.72 332.56,-329.76 25.15,-19.23 34.61,-32.81 60.23,-53.92l676.19 -533.11c370.51,-279.71 654.77,-987.07 471.5,-1173.9l-15.46 62.31c-13.28,130.96 -55.79,290.16 -97.09,414.04 -102.78,308.29 -252.23,485.79 -496.41,674.53l-643.58 514.29c-151.73,123.36 -326.51,277.84 -442.21,436.65 -120.13,164.9 -164.28,554.52 -231.52,632.58 -76.33,-87.89 -127.39,-177.09 -200.65,-268.84 -31.24,-39.13 -180.2,-235.94 -186.28,-277.44 -17.61,-120.14 138.53,-611.6 178.83,-743.13 37.25,-121.62 73.9,-226.58 94.9,-362.67 22.38,-145.08 14.28,-287.77 27.27,-434.13 18.09,-203.78 65.55,-400.41 85.07,-598.9 8.21,-83.45 36.74,-94.93 53.95,-177.26 -59.94,18.12 -76.28,2.82 -120.69,46.51 -15.66,15.41 -57.87,63.54 -71.11,94.56 -72.75,170.39 -105.76,691.82 -109.93,877.49 -6.2,275.57 -89.48,533.62 -241.3,744.42 -34.13,47.39 -109.02,139.92 -130.01,189.08 -82.24,-52.79 -130.7,-131.54 -212.79,-190.66 -491.34,-353.86 -1136.53,-228.2 -1210.04,-1134.99 -12.86,-158.66 -47.53,-174.61 -1.88,-325.1l-66.73 44.06c-20.11,14.77 -32.98,21.67 -48.43,40.23 -81.12,97.51 -26.77,352.07 -1.72,463.63 172.41,768.1 698.37,690.81 1205.45,1010.48 288.76,182.04 385.43,551.66 567.39,908.6 42.9,84.15 101.53,142.43 154.04,215.32 186.95,259.52 294.19,500.43 259.47,849.56 -30.75,-44.34 -150.6,-328.74 -280.58,-522.73 -107.03,-159.74 -226.56,-273.56 -474.13,-328.63 -356.25,-79.25 -656.64,10.54 -933.95,203.18 -70.06,48.67 -190.52,127.7 -121.41,250.55 81.19,-4.31 22.64,-14.54 60.28,-82.08 14.51,-26.04 56.61,-42.7 80.9,-58.93 187.55,-125.35 349.46,-226.95 599.88,-238.79 308.24,-14.57 622.72,77.37 724.87,392.06 -621.79,-92.74 -799.18,322.97 -1164.27,541.21 -300.54,179.65 -288.55,-130.93 -304.11,-177.8 -128.8,83.12 -67.38,354.76 183.62,326.98 146.16,-16.17 311.86,-156.36 401.72,-223.76 430.97,-323.23 379.77,-262.15 987.85,-212.41 33.66,138.06 86.9,232.86 83.97,395.96 -3.9,217.18 6.99,221.72 -94.12,373.99 -92.39,139.14 -277.4,479 -373.56,582.92 -60.03,-32.23 -102.84,-110.46 -149.63,-157.92 -55.44,-56.23 -97.49,-86.73 -155.49,-137.7 -35.19,-30.93 -46.94,-43.17 -82.35,-70.2 -247.28,-188.74 -204.3,-139.37 -483.43,-242.31 -219.64,-80.99 -409.6,-145.42 -604.35,-273.59 -64.64,-42.55 -137.58,-69 -141.43,-163.66 -11.34,-278.92 215.06,-597.49 184.17,-993.58 -7.82,-100.25 -38.19,-160.62 -49.26,-245.79 -11.3,-87.06 3.2,-177.27 23.73,-258.31 37.73,-148.9 103.22,-87.79 105.28,-180.4 -183.92,-33.01 -212.26,134.06 -229.11,285.72 -21.85,196.68 43.43,263.42 48.95,437.13 14.85,467.25 -166.43,564.36 -212.35,818.59z"/>
 </g>
</svg>
