<?xml version="1.0" encoding="UTF-8"?>
<!DOCTYPE svg PUBLIC "-//W3C//DTD SVG 1.1//EN" "http://www.w3.org/Graphics/SVG/1.1/DTD/svg11.dtd">
<!-- Creator: CorelDRAW 2017 -->
<svg xmlns="http://www.w3.org/2000/svg" xml:space="preserve" width="264.996mm" height="301.699mm" version="1.1" style="shape-rendering:geometricPrecision; text-rendering:geometricPrecision; image-rendering:optimizeQuality; fill-rule:evenodd; clip-rule:evenodd"
viewBox="0 0 32331.91 36809.91"
 xmlns:xlink="http://www.w3.org/1999/xlink">
 <defs>
  <style type="text/css">
   <![CDATA[
    .fil0 {fill:#e7e4e3}
    .fil1 {fill:#e2e1e1}
   ]]>
  </style>
 </defs>
 <g id="Layer_x0020_1">
  <metadata id="CorelCorpID_0Corel-Layer"/>
  <path class="fil0" d="M3401.09 15025.98c0,889.25 527.99,1496.24 1113.34,1900.67 1495.41,1033.16 2844.7,267.94 4855.48,913.08 1137.01,364.81 1242.11,743.45 1780.5,1103.97 -56.88,-244.18 -768.31,-1404.42 -940.94,-1814.37 -691.53,-1642.25 -2378.75,-3911.53 -4440.52,-3911.53l-344.42 0c-1003.11,0 -2023.43,821.51 -2023.43,1808.18zm3530.24 -9471.4c0,807.26 245.87,1425.87 742.69,1969.58 995.43,1089.34 2927.88,1317.88 3789.3,2237.95 238.48,254.69 334.07,546.7 505.07,743.44 -91.32,-1127.59 -1026.97,-3976.34 -1448.77,-4879.84 -709.04,-1518.78 -3588.29,-2200.11 -3588.29,-71.12zm18038.7 10633.79c319.13,-367.14 255.46,-802.05 1234.58,-1391.58 1307.08,-786.98 2637.2,-989.42 3172.43,-2079.9 268.52,-547.08 380.36,-1650.52 -89.63,-2051.33 -804.25,-685.87 -2554.52,-288.26 -3327.85,1260.01 -307.63,615.91 -500.03,1192.16 -649.61,1976.57 -88.65,464.93 -332.22,1860.71 -339.92,2286.24zm-23032.71 6027.26l0 215.26c0,866.26 1211.1,1722.07 2152.59,1722.07 1010.22,0 1835.39,-227.53 2639.25,-675.75 284.22,-158.47 1677.85,-1015.48 1795.09,-1175.48 -640.12,149.13 -115.37,172.2 -1162.4,172.2 -1199.37,0 -2142.8,-1463.76 -3702.46,-1463.76 -678.97,0 -1722.07,580.92 -1722.07,1205.46zm17220.72 -19459.42c0,967.49 721.4,1766.96 1136.98,2393.28 242.59,365.6 476.54,701.26 671.9,1093.22 373.15,748.68 289.04,1224.33 386.77,1378.36 134.84,-1620.5 947.14,-2214.94 947.14,-4477.4 0,-925.14 -704.16,-1866.53 -1426.95,-2058.98 -1014.41,-270.12 -1715.83,786.96 -1715.83,1671.52zm-18081.75 6845.23l0 215.26c0,1650.08 2395.08,2664.14 4219.07,2626.17l1248.07 -51.99c-565.8,-351.5 -1071.82,166.01 -2011.63,-2025.86 -365.42,-852.23 -903.28,-2012.08 -2077.85,-2012.08l-258.3 0c-577.53,0 -1119.35,653.65 -1119.35,1248.5zm11107.36 15843.07c0,852.33 1028.01,1463.76 1635.97,1463.76 1233.57,0 1363.92,-396.91 2329.22,-727.45 1596.22,-546.61 1502.33,529.27 1674.6,727.45 0,-1622.29 -1108.77,-2345.63 -2313.53,-2766.58 -647.73,-226.31 -1436.48,-332.35 -2110.46,-64.51 -501.43,199.26 -1215.79,708.4 -1215.79,1367.32zm7361.86 -3013.62c0,1692.28 1620.03,2145.9 1329.45,4476.61 146.22,-161.5 808.89,-1478.33 952.45,-1764.21 426.3,-848.88 645.63,-1494.74 645.63,-2497.14 0,-804.64 -669.18,-1937.34 -1679.02,-1937.34 -630.91,0 -1248.5,1023.34 -1248.5,1722.08zm-1205.45 -3702.46c227.62,-358.74 -34.02,-1266.31 1997.44,-1791.13 880.26,-227.42 2049.43,-719.4 2049.43,-1739.13l0 -301.36c0,-595.61 -561.37,-1076.3 -1119.35,-1076.3l-344.42 0c-1442.72,0 -2534.21,1909.17 -2621.02,3104.88 -53.27,733.71 36.53,1129.33 37.91,1803.03zm-15068.13 -12485.03l0 344.42c0,1592.06 2222.98,3228.88 3874.66,3228.88 -269.25,-234.03 -1076.29,-48.17 -1076.29,-2066.49 0,-1373.77 131.64,-2093.68 -878.31,-2694.99 -486.05,-289.37 -819.58,-422.15 -1319.05,-62.03 -284.9,205.41 -601.02,761.88 -601.02,1250.21zm11623.99 3444.14c0,1698.07 893.47,2282.53 1334.61,4176.03 8.89,-14.02 214.81,-974.35 262.75,-1114.9 365.21,-1070.76 1114.9,-2134.33 1114.9,-3147.23 0,-751.05 -595.51,-1592.91 -1291.55,-1592.91 -764.9,0 -1420.71,921.45 -1420.71,1679.01zm11839.24 8438.16c294.43,-68.59 526.19,-192.91 886.78,-275.62 854.95,-196.09 1848.57,-178.1 2749.29,-867.06 1593.95,-1219.22 858.83,-4200.4 -1403.57,-2350.71 -456.13,372.91 -441.4,669.87 -683.77,1210.51 -191.75,427.73 -412.49,839.13 -657.48,1236.8 -286.96,465.82 -660.1,700.89 -891.25,1046.07zm-2927.52 -5941.15c456.61,-525.31 16.52,-580.01 1653.54,-1661.44 525.13,-346.91 1532.3,-986.51 1532.3,-1782.7l0 -344.42c0,-1828.84 -1922.65,-1236.82 -2522.39,-240.64 -541.33,899.16 -663.45,2935.3 -663.45,4029.2zm-19071.95 6673.03c0,1221.82 1449.93,1851.23 2755.31,1851.23 628.05,0 2211.98,-398.04 2497.01,-645.77 -2220.44,184.77 -2156.12,-2324.81 -3917.72,-2324.81l-215.26 0c-620.4,0 -1119.35,508.19 -1119.35,1119.35zm5037.06 -6371.67c0,1954.17 1378.72,1659.61 2698.88,2768.7 551.52,463.33 358.46,742.97 616.1,1149.02l43.06 -1808.17c0,-1396.68 -904.9,-3013.63 -2281.75,-3013.63 -613.67,0 -1076.29,282.46 -1076.29,904.09zm3960.76 -5381.47c259.87,-298.97 346.03,-538.73 677.75,-872.12 257.24,-258.55 547.87,-478.95 847.42,-702.45 966.98,-721.49 1402.36,-974.86 1402.36,-2084.84 0,-1200.48 -1555.89,-1441.5 -2376.83,-138.14 -432.05,685.93 -467.82,1850.46 -464.39,2764.51 1.67,444.2 -78.92,701.08 -86.31,1033.04zm11236.52 13475.22c0,970.51 755.88,1892.27 688.84,2841.42l-91.57 644.85c43.76,-27.15 970.36,-1311.79 1053.01,-1448.53 497.55,-823.13 717.57,-1258.83 717.57,-2166.9 0,-673.65 -525.48,-1334.61 -1205.45,-1334.61 -662.2,0 -1162.4,792.4 -1162.4,1463.76zm-15713.9 3874.66c0,855.7 547.33,990.19 1248.5,990.19 773.1,0 1276.24,-835.39 1601.27,-1326.25 457.87,-691.47 739.46,-1082.96 1670.67,-1299.91 -315.11,-35.57 -1549.45,-221.93 -1765.13,-172.2 -1293.64,0 -2755.31,580.76 -2755.31,1808.17zm-9256.14 -9299.2c0,1159.23 1213.55,1929.06 2040.79,2479.65 345.02,229.63 578.6,456.81 886.74,663.14 -46.78,-175.16 -224.24,-447.39 -293.37,-696.83 -71.36,-257.46 -120.11,-601.91 -135.69,-897.56 -33.83,-642.34 -74.61,-1318.11 -301.02,-1765.47 -619.82,-1224.68 -2197.45,-1124.4 -2197.45,217.07zm21439.8 14336.26c1219.61,-816.7 2117.77,-185.12 3111.3,-677.26 1141.87,-565.6 961.22,-1991.95 -140.73,-1991.95l-344.42 0c-1134.43,0 -2545.97,2325.03 -2626.16,2669.21zm-6673.03 1119.35c1067.35,0 1909.67,-1291.55 3185.83,-1291.55 -24.07,-32.86 -1234.64,-428.65 -1372.69,-478.54 -383.72,-138.66 -993.58,-339.44 -1511.79,-339.44 -811.75,0 -1549.87,521.7 -1549.87,1162.39 0,512.78 607.24,947.14 1248.5,947.14zm3444.14 -19545.53c129.94,-148.83 379.01,-602.2 524.91,-809.71 705.19,-1003.01 1455.48,-1561.48 1455.48,-3021.9 0,-446.32 -314.34,-1248.5 -817.98,-1248.5 -1010.27,0 -888.24,2755.72 -943.86,3705.75 -33.64,574.67 -189.55,959 -218.54,1374.37zm-2152.59 9901.92c-39.96,-480.19 -558.64,-1531.97 -804.59,-1864.62 -324.08,-438.34 -918.98,-1019.85 -1649.36,-1019.85 -1404.31,0 -1407.64,1397.17 -360.48,1910.34 1186.82,581.6 1653.62,-361.35 2814.43,974.13zm-3702.44 -12183.67c0,-1092.67 559.67,-1860.54 559.67,-2841.42 0,-623.82 -470.06,-1420.71 -1033.24,-1420.71 -1058.49,0 -1205.12,1285.47 -760.59,2095.2 317.35,578.04 712.39,1068.14 976.58,1563.47 90.52,169.68 156.46,457.94 257.59,603.46zm-1291.56 -7318.81c0,790.09 511.19,1171.9 915.75,1581.27 696.63,704.94 801,1463 935.48,1561.52 0,-984.21 344.42,-1068.9 344.42,-2410.91 0,-1799.44 -2195.65,-2206.66 -2195.65,-731.88zm7275.75 11451.79c422.88,-84.83 1603.99,-479.64 1979.48,-646.67 765.7,-340.62 1206.35,-791.62 1206.35,-1678.12 0,-1010.82 -1470.46,-885.94 -1966.94,56.49 -189.81,360.28 -321.35,856.06 -485,1237.07 -300.58,699.78 -407.85,579.08 -733.9,1031.23zm-9126.98 14852.88l0 215.26c0,450.41 453.68,904.09 904.09,904.09 720.39,0 899.13,-214.86 1502.33,-693.32 192.52,-152.71 333.96,-294.64 539.93,-450.27 187.7,-141.86 517.63,-268.21 626.95,-363.23 -1244.94,0 -1504.09,-602.72 -2626.16,-602.72 -475.25,0 -947.14,518.31 -947.14,990.2zm11580.93 -9428.36c0,708.44 671.78,1078.84 1375.05,1121.96 1076.86,66.04 1224.07,794.92 1466.38,1073.69 -15.45,-853.93 -51.99,-1505.96 -373.9,-2080.07 -835.18,-1489.5 -2467.53,-1057.46 -2467.53,-115.58zm-15111.17 -13647.42c1316.34,-881.48 2798.36,-616.1 2798.36,-2023.43 0,-564.6 -1362.02,-1608.08 -2383.21,1233.13 -107.33,298.6 -375.15,640.47 -415.15,790.3zm22817.45 16402.75c907.45,-20.22 2927.52,-210.14 2927.52,-1420.72 0,-528.36 -62.79,-774.93 -774.93,-774.93 -646.57,0 -885.58,612.55 -1127.08,1025.51 -440.28,752.87 -422.92,646.37 -1025.51,1170.14zm-5768.94 -18210.92c0,989.47 516.62,1383.59 516.62,2195.63 91.99,-67.4 209.28,-436.93 292.37,-568.66 247.56,-392.49 999.19,-1090.04 999.19,-1583.93 0,-1241.35 -1808.18,-1276.74 -1808.18,-43.04zm-6113.35 2367.85l0 430.51c0,290.59 275.51,1553.94 387.46,1635.98 0,-1108.88 1334.61,-1507.21 1334.61,-2410.91 0,-1566.76 -1722.07,-820.68 -1722.07,344.42zm-12226.71 21353.7c0,328.89 198.31,731.88 516.62,731.88 1096.47,0 962.94,-973.7 1734.59,-1623.46 303.88,-255.86 524.67,-206.07 762.42,-356.92 -441.87,-56.42 -890.62,-153.17 -1334.61,-129.16 -847.68,0 -1679.02,566.52 -1679.02,1377.66zm8395.1 2669.21c-216.55,57.82 -421.41,223.53 -835.72,326.68 -315.34,78.5 -607.07,178.63 -840.98,321.41 -447.15,272.93 -808.82,974.5 -335.65,1493.42 381.61,418.51 1494.71,147.9 1616.78,-255.34 155.7,-514.28 -61.42,-922.26 395.58,-1886.17zm12614.18 -10504.65c360.6,-414.85 502.14,-532.14 912.93,-895.24 338.5,-299.2 766.09,-571.05 766.09,-1128.19 0,-873.61 -954.84,-1229.41 -1508.59,-432.3 -336.23,483.97 -99.49,1439.22 -170.43,2455.73zm4477.4 -7878.48c0,1023.85 473.57,1142.72 473.57,2023.43 0,148.42 -31.84,166.7 -43.06,301.36 120.42,-88.22 813.68,-1297.88 916.76,-1537.19 261.62,-607.3 111.44,-1605.59 -572.34,-1605.59 -425.59,0 -774.93,395.06 -774.93,817.98zm-14723.72 -9299.2l1720.85 -121.09c1384.8,-1.96 1338.51,-1428.77 431.74,-1428.77 -611.19,0 -860.91,180.59 -1303.44,633.88 -118.89,121.78 -790.32,834.42 -849.15,915.98zm10892.11 24195.12c125.38,79.55 1688.26,559.68 1937.33,559.68 1339.11,0 1351.69,-1463.76 258.32,-1463.76 -727.2,0 -1315,830.81 -2195.65,904.09zm1851.23 -1162.4c216.27,-50.38 1104.35,-383.53 1359.62,-491.61 1347.28,-570.43 996.82,-1704.02 405.51,-1704.02 -619.22,0 -839.24,235.97 -1125.86,940.63 -437.13,1074.7 -444.77,844.78 -639.27,1255.01zm-258.32 -17694.3c0,957.24 881.71,770.35 559.68,2152.59 326.48,-239.2 904.09,-1189.29 904.09,-1808.17 0,-489.13 -385.3,-1076.3 -861.03,-1076.3 -348.35,0 -602.74,379.2 -602.74,731.88zm-2927.52 -2841.42l258.3 1980.39c97,-111.59 248.43,-492.24 411.73,-707.63 179.85,-237.26 324.53,-429.65 484.9,-677.49 311.56,-481.5 265.83,-1456.31 -380.01,-1456.31 -443.58,0 -774.93,424.79 -774.93,861.04zm-17737.34 7964.58c0,568.52 314.27,827.26 728.19,1080 185.9,113.53 964.88,492.6 1209.14,512.93 -477.19,-712.62 -330.86,-1068.96 -658.53,-1666.26 -335.44,-611.45 -1278.8,-718.55 -1278.8,73.34zm2152.59 -10117.17c0,743.46 831.67,1500.22 1291.55,1808.17 -57.78,-248.06 -193.71,-408.01 -161.25,-760.8 39.12,-425.12 118.2,-482.65 118.2,-1047.37 0,-929.04 -1248.5,-993.37 -1248.5,0zm-774.93 7663.22c0,549.11 527.57,793.09 731.87,774.94 1207.83,-107.31 918.65,-169.8 1765.13,0 -189.53,-283.04 -1229.4,-1248.5 -1679.01,-1248.5 -305.93,0 -817.98,48.64 -817.98,473.57zm22128.62 8696.47c219.07,-103.87 213.88,-176.96 499.35,-275.59 788.1,-272.32 1351.88,-368.11 1351.88,-1274.27 0,-404.72 -392.66,-387.46 -602.72,-387.46 -443.28,0 -645.15,475.93 -786.02,806.91 -111.28,261.48 -409.11,901.29 -462.49,1130.42zm-13518.26 13604.38c438.96,0 636.57,-479.1 759.07,-833.85 238.89,-691.83 220.34,-504.65 661.64,-888.24 -962.48,0 -2023.44,330.12 -2023.44,1248.5 0,394.66 309.52,473.58 602.74,473.58zm-16876.31 -12958.6l0 172.2c0,650.25 1085.87,1277.38 1722.07,1291.55 -389.98,-582.38 -298.03,-278.11 -468.18,-1124.73 -223.97,-1114.47 -1253.89,-934.05 -1253.89,-339.03zm13604.38 13432.16c356.86,0 1341.85,-550.28 1549.85,-731.88 -157,10.96 -124.79,43.06 -258.3,43.06 -540.66,0 -998.69,-473.58 -1506.81,-473.58 -765.67,0 -1202.54,1162.4 215.26,1162.4zm-6845.25 -5338.42l0 258.3c0,661.72 812.74,1286.17 1506.82,1334.61 -168.82,-230.4 -372.21,-66.39 -389.49,-643.76 -9.94,-332.57 46.01,-717.06 -55.45,-977.79 -270.97,-696.22 -1061.88,-568.66 -1061.88,28.64zm7103.55 -24711.75c0,-813.03 774.93,-1079.61 774.93,-1765.13 0,-1041.46 -1607.05,-577.48 -1115.01,942.81 49.06,151.6 111.14,264.11 162.19,397.49 61.65,161.09 65.91,342.77 177.9,424.82zm-3831.61 17435.99c0,413.54 548.69,694.94 975.11,668.75 357.78,-21.96 1149.74,-240.53 1349.7,-367.39 -810.41,-67.45 -1091.36,-817.98 -1722.07,-817.98 -305.28,0 -602.74,220.16 -602.74,516.62zm3271.94 -11279.58c0,361.34 15.1,508.31 103.26,843.89 77.6,295.38 68.96,394.08 68.96,749.04 98.91,-113.8 159.03,-263.75 249.03,-396.75 325.63,-481.17 698.11,-773.19 698.11,-1368.38 0,-242.11 -281.71,-559.68 -516.62,-559.68 -308.71,0 -602.74,392.1 -602.74,731.88zm5467.58 12743.34c207.56,-327.12 -127.69,-100.17 454.91,-836.64 166.22,-210.12 492.23,-470.09 492.23,-799.33 0,-860.8 -823.32,-717.97 -1078.25,-174.17 -250.76,534.91 4.12,1265.06 131.11,1810.14zm4089.92 2669.21c278.91,-401.38 139.74,-259.63 522.7,-725.81 267.16,-325.21 424.44,-517.71 424.44,-953.21 0,-842.07 -1201.64,-608.19 -1109.05,330.95 43.87,445.05 161.91,833.72 161.91,1348.06zm-14766.77 1851.23c0,869.53 1199.21,688.84 2066.49,688.84 -172.87,-150.94 -326.34,-217.37 -506.51,-397.58 -181.95,-182.01 -244.41,-298.29 -445.08,-459.01 -153.91,-123.29 -366.47,-271.41 -627.2,-245.49 -238.61,23.72 -487.71,179.56 -487.71,413.24zm1248.5 5338.42c351.32,0 652.05,-350.09 812.55,-565.1l565.11 -769.51c-156.73,13.04 -394.52,93.64 -572.27,116.57 -223.09,28.76 -396.97,37.81 -608.47,80.36 -948.2,190.76 -876.16,1137.68 -196.92,1137.68zm13905.73 -861.03c0,-421.24 -591.33,-635.09 -1045.53,-486.05l-1107.06 572.15c572.31,24.98 1069.51,387.46 1463.76,387.46 364.15,0 688.83,-275.26 688.83,-473.57zm3659.41 -2626.17c240.39,0 559.67,-5.94 559.67,-430.51 0,-757.61 -1240.43,-692.75 -1765.11,-1033.24 33.99,127.3 155.9,220.85 244.85,400.92 177.41,359.16 498.38,1062.83 960.6,1062.83zm-3831.61 -12786.38l49.25 -989.81c17.22,-380.73 -295.35,-861.42 -651.98,-861.42 -239.92,0 -502.04,-48.58 -439.28,481.83 54.25,458.44 317.49,478.41 709.32,884.1 163.54,169.32 202.88,335.95 332.68,485.3zm-5596.73 -11580.95c256.96,-275.61 53.37,-228.85 631.88,-573.56 297.08,-177.01 573.56,-321.76 573.56,-717.99 0,-553.24 -781.06,-630.2 -1090.47,114.98 -137.49,331.16 -123.49,722.82 -114.98,1176.57zm-14077.94 15498.66c0,559.06 506.09,905.04 516.62,1377.65l86.1 0c0,-577.64 344.42,-882.69 344.42,-1377.65 0,-722.38 -947.14,-823.38 -947.14,0zm20191.29 -12054.51c0,282.89 280.77,1234.29 344.42,1334.61 154.1,-661.47 602.72,-886.91 602.72,-1506.82 0,-616.67 -947.14,-531.04 -947.14,172.22zm-11279.57 4219.08c0,372.14 476.35,837.18 732.27,1032.96 148.67,113.74 188.89,220.82 300.97,301.64 -10.99,-132.12 -43.91,-182.96 -62.41,-324.56 -43.03,-329.33 282.3,-1483.63 -626.42,-1483.63 -180.1,0 -344.42,287.64 -344.42,473.58zm-9557.5 14336.25c0,322.32 244.79,473.58 559.68,473.58 371.24,0 726.23,-516.39 914.03,-721.94 100.4,-109.91 223.81,-175.99 291.42,-268.26 -542.13,126.3 -800.41,-59.89 -1243.73,3.92 -241.97,34.82 -521.39,243.55 -521.39,512.71zm26089.4 -15283.39c324.56,-217.33 727.8,-207.79 1035.01,-428.75 260.55,-187.38 552.52,-644.85 256.69,-992.64 -278.72,-327.67 -721.51,62.85 -824.23,382.06 -253.74,788.56 -428.04,904.24 -467.48,1039.33zm-12140.61 3487.2c0,425.86 186.11,931.77 387.48,1162.4 0,-759.42 674.86,-905.17 587.35,-1447.18 -120.09,-743.9 -974.83,-345.35 -974.83,284.78zm-6027.25 2497.01c0,414.65 156,567.48 460.17,788.32 137.21,99.63 634.35,376.01 788.34,417.12 -44.51,-166.7 -127.58,-191.99 -183.03,-419.71 -119.78,-491.99 -40.67,-1173.2 -764.12,-1173.2 -137.09,0 -301.36,219.36 -301.36,387.46zm15111.19 -9428.36c233.88,-54.48 304.88,-96.06 627.56,-147.35 219.14,-34.83 476.24,-91.87 636.84,-181.16 221.09,-122.91 792.09,-919.98 -145.06,-919.98 -388.83,0 -627.25,551.48 -860.74,904.38 -87.49,132.25 -181.04,228.27 -258.61,344.11zm2970.57 12915.55c108.48,-79.49 128.61,-168.09 275.91,-283.76 129.4,-101.61 208.37,-167.52 339.29,-263.43 1220.61,-894.13 -295.59,-1753.27 -525.1,-525.1 -40.71,217.9 -90.1,845.39 -90.1,1072.29zm2066.49 -5984.2c0,592.49 658.35,834.2 774.93,1334.61 30.55,-49.19 71.19,-674.75 112.93,-966.08 135.81,-947.83 -887.86,-1027.33 -887.86,-368.53zm-17263.78 3358.04c0,450.8 72.92,498.33 545.44,746.12 442.09,231.83 303.44,261.21 530.85,588.49 0,-291.02 189.15,-1592.91 -731.87,-1592.91 -157.33,0 -344.42,118.81 -344.42,258.3zm-11150.41 -3616.34c0,249.17 287.38,975.3 387.46,1119.35 59.49,-714.89 473.57,-633.58 473.57,-1377.66 0,-574.48 -861.03,-486.9 -861.03,258.32zm4821.8 8610.36c0,913.22 1333.5,263.91 1679.01,-215.26 -623.04,124.97 -684.45,-129.16 -1162.39,-129.16 -195.46,0 -516.62,169.36 -516.62,344.42zm8481.2 -6285.57c0,395.06 410.62,1202.39 473.57,1248.5 0,-314 196.41,-620.84 285.77,-922.29 247.37,-834.41 -759.33,-1001.3 -759.33,-326.22zm-13862.68 -2195.65c-79.62,-118.9 -148.56,-154.45 -240.82,-275.79 -94.25,-123.96 -136.86,-207.42 -218.86,-340.82 -632.34,-1028.61 -1397.88,-98.77 -723.17,335.7 243.65,156.89 834.86,211.11 1182.85,280.91zm19846.89 -3487.2c-18.85,-226.44 -85.22,-667.3 -138.61,-894.63 -59.17,-251.92 -181.87,-526.08 -507.17,-526.08 -487.16,0 -351.78,577.98 -110.26,799.08 297.3,272.15 456.83,277.39 756.04,621.62zm-6500.83 14034.9c648.54,0 255.79,-142.23 1011.61,0 -297.84,-300.21 -464.1,-700.04 -980.16,-763.23 -631.86,-77.35 -618.72,763.23 -31.45,763.23zm12528.08 -4907.9c0,172.62 241.57,982.06 301.36,1076.29 118.14,-507.11 430.52,-570.06 430.52,-1162.4 0,-512.29 -731.88,-492.77 -731.88,86.11zm-27165.69 2841.42c0,728.64 524.91,446.99 663.28,189.7 85.81,-159.56 72.86,-341.51 113.22,-532.54 59.17,-280.16 88.18,-244.66 213.69,-432.09 -406.78,9.07 -990.19,386.26 -990.19,774.94zm8309 774.93c0,522.45 990.19,379.01 990.19,-731.88 -328.29,219.85 37.66,85.65 -565.88,295.16 -195.47,67.85 -424.31,202.74 -424.31,436.72zm18210.91 129.16c92.1,-61.68 774.94,-636.09 774.94,-904.09 0,-451.31 -632.6,-466.42 -723.73,94.26 -21.79,134.08 -5.59,286.88 -6.55,423.96 -1.49,213.17 -31.11,223.15 -44.66,385.87zm-24367.32 -5855.05c0,514.18 400.71,809.65 774.93,817.98 -413.41,-359.34 95.78,-1162.4 -516.62,-1162.4 -139.49,0 -258.3,187.09 -258.3,344.42zm9342.24 5123.16c0,651.49 911.93,258.32 1248.49,258.32l-586.2 -404.25c-400.29,-195.2 -662.29,-17.37 -662.29,145.93zm10547.69 -6070.31c0,258.15 26.84,332.72 143.27,545.56l201.13 401.58c25.7,-308.71 258.32,-624.51 258.32,-904.09 0,-410.47 -602.72,-498.8 -602.72,-43.06zm-14207.1 2281.75c-70.83,304.01 -27.57,519.9 369.13,621.18 292.24,74.61 423.71,31.19 707.18,24.6l-227.25 -160.48c-60.25,-64.03 -112.72,-148.02 -166.03,-221.17 -156.45,-214.69 -324.73,-403.2 -683.02,-264.14zm3142.79 -258.3c0,685.63 121.31,552.4 129.15,904.09 6.02,-8.65 13.3,-33.77 15.53,-27.51 20.3,57.1 4.22,-13.66 85.48,-172.85 191.51,-375.13 329.51,-377.5 329.51,-789.84 0,-155.4 -233.6,-318.8 -437.72,-136.36 -33.28,29.75 -121.95,161.94 -121.95,222.47zm6673.03 8868.67c0,198.34 112.53,319.1 209.31,436.46 190.98,231.6 178.34,282.67 264.26,381.52 6.16,-276.85 316.3,-1076.29 -258.32,-1076.29 -122.17,0 -215.25,148.61 -215.25,258.3zm-6199.47 -86.1c-79.05,-185.32 -125.67,-431.78 -231.1,-586.94 -386.39,-568.63 -961.71,137.72 -216.47,391.92l159.66 53.64c145.45,60.25 152.78,105.31 287.9,141.38zm-2497.01 -11968.4c0,270.85 293.81,525.39 473.58,645.77 0,-190.36 24.68,-405.2 -14.31,-588.42 -45.51,-213.86 -136.72,-227.56 -330.11,-272.6 -59.39,88.7 -129.16,111.75 -129.16,215.26zm-1722.07 9083.93c0,128.35 421.42,347.71 602.72,-430.52 -154.43,103.41 -173.67,82.86 -359.12,157.5 -128.72,51.83 -243.6,111.89 -243.6,273.02z"/>
  <path class="fil1" d="M16495.89 19122.95c-307.28,-301.92 -1265.32,-2461.63 -1499.16,-3078.67 -1045.76,-2759.43 -1041.31,-4844.3 -57.92,-7604.87 202.71,-569.02 412.39,-1081.17 651.88,-1629.42 186.56,-427.1 607.07,-1166.88 718.89,-1531.83 -281.85,155.4 -1543.78,3127.5 -1766.51,3712.41 -461.63,1212.3 -867.21,3169.85 -594.29,4750.9 -37.55,-26.24 -699.55,-1014.64 -821.85,-1165.42 -1980.15,-2441.26 -5048.9,-1523.76 -7424.63,-2477.57 -1522.1,-611.11 -1924.78,-1653.5 -2172.05,-1767.18 334.68,684.36 1214.6,1436.92 1941.39,1782.92 2652.08,1262.51 5883,-18.59 7871.28,3278.45 863.22,1431.44 666.02,1255.28 1121.04,2625.86 300.61,905.48 665,1817.31 1066.69,2633.99 432.96,880.28 2274.15,4384.25 2429,5033.93 -188.97,-104.38 -1157.82,-1135.73 -1549.76,-1435.18 -2203.8,-1683.69 -4355.03,-1518.73 -7199.38,-1327.22 -1961.87,132.09 -3713.52,235.75 -5297.58,-382.56 -1777.88,-693.95 -3034.1,-2459.43 -3267.17,-2566.57 194.38,397.48 1331.03,1492.4 1712.06,1797.15 2627.06,2101.13 5366.18,1446.31 8928.78,1446.31 -249.57,249.19 -466.21,254.71 -1086.43,951.14 -1107.72,1243.83 -1294.16,2334.91 -3606.22,2334.91l0 28.94c1175.67,0 1588.34,-14.7 2308.61,-561.29 1163.06,-882.59 1633.19,-2339.63 3215.42,-2555.5 857.59,-117.01 1866.81,116.07 2475.23,370.04 1321.61,551.69 2305.32,1635.64 3119.72,2648.62 375.53,467.1 972.18,1097.75 1130.81,1755.45 200.62,831.83 321.32,1530.81 321.32,2525.77 -881.81,-426.77 -1743.95,-1153.3 -3062.14,-1163.22 -2765.09,-20.8 -4180.94,1681.68 -6628.9,1820.1 -1564.09,88.44 -2819.03,-974.2 -3138.38,-976.36 4202.31,3012.56 6468.67,-823.45 9964.76,-312.14 1357.25,198.5 1922.73,978.78 2821.63,1399.49 -65.7,1200.97 -755.56,3065.47 -1208.86,3972.6 -292.19,584.7 -537.8,1151.29 -867.29,1714.52 -171.65,293.43 -821.42,1394.74 -879.95,1638.47l3200.3 -6.77c585.65,-2115.46 825.04,-4678.53 825.04,-7275.77 244.01,-58.59 1536.96,-1311.41 1794.23,-1556.13 550.96,-524.06 1085.35,-1140.6 1513.7,-1801.91 2182.75,0 2839.1,-530.65 3713.12,-1884.26 382.33,-592.12 714.02,-1140.1 1230.08,-1567.08 717.91,-594 1131.8,-430.83 2117.31,-606.58 -1781.48,-306.91 -2730.38,772.46 -3401.39,1646.99 -943.48,1229.62 -1222.53,1772.48 -3271.64,1736.21 1163.98,-2437.7 477.62,-5557.45 190.37,-8370.95 -356.2,-3488.97 1209.71,-5178.41 2808.67,-6747.28 -306.21,88.68 -1386.3,1308 -1629.34,1621.27 -1970.91,2540.33 -1451.27,4790.95 -1233.57,7852.87 159.66,2245.55 216.25,3926.92 -699.04,5540.81 -348.27,614.09 -925.12,1349.2 -1400.27,1785.65 -228.14,209.57 -1558.04,1475.98 -1696.23,1410.32 -17.41,-41.31 -203.72,-1532.7 -244.14,-1731.11 -104.94,-515.24 -273.12,-1088.32 -437.1,-1541.85 -357.75,-989.49 -764.15,-1892.89 -1198.33,-2764.44 -429.59,-862.33 -989.65,-1698.84 -1405.26,-2552.14 -368.36,-756.3 -18.42,-2897.77 203.1,-3539.33 621.61,-1800.37 2686.5,-2783.6 3994.9,-3927.16 1841.1,-1609.16 2057.41,-2507.68 2057.41,-5807.23l-28.94 0c0,3975.68 -677.32,4776.26 -3118.72,6438.33 -2147.23,1461.82 -3554.31,2377.5 -3554.31,5960.58z"/>
 </g>
</svg>
